<svg width="40" height="40" viewBox="0 0 40 40" fill="none" xmlns="http://www.w3.org/2000/svg">
<style>
    path { 
        fill: #000000; 
    }

    @media (prefers-color-scheme: dark) {
        path { 
            fill: #ffffff; 
        }
    }
</style>

<path d="M6.98804 11.8461H12.035C12.1118 11.8461 12.1348 11.8067 12.1042 11.7282L9.62673 3.75866C9.61137 3.69578 9.57296 3.66435 9.51151 3.66435C9.45005 3.66435 9.41164 3.69578 9.39627 3.75866L6.89585 11.7282C6.86513 11.8067 6.89585 11.8461 6.98804 11.8461ZM12.8416 14.4986H6.1584C6.08159 14.4986 6.02782 14.5379 5.99709 14.6165L4.9831 17.8821C4.96773 17.9608 4.9178 18 4.83329 18H2.12547C2.01792 18 1.97952 17.9449 2.01024 17.8349L7.24154 1.11788C7.27227 1.03929 7.32219 1 7.39133 1H11.6316C11.6931 1 11.7431 1.03929 11.7815 1.11788L16.9898 17.8349C17.0205 17.9449 16.9821 18 16.8744 18H14.1552C14.0937 18 14.0476 17.9608 14.0168 17.8821L13.0028 14.6165C12.9721 14.5379 12.9183 14.4986 12.8416 14.4986Z"/>
<path d="M37 33.6315C37 35.2753 36.3806 36.583 35.1416 37.5547C33.9028 38.5263 32.2077 39.0081 30.0565 38.9999C28.8428 38.9999 27.7629 38.8542 26.8171 38.5627C25.8711 38.2712 25.1304 37.8664 24.5946 37.3482C23.5232 36.336 22.9917 35.2064 23.0001 33.9596C23.0001 33.8786 23.0461 33.8339 23.1382 33.8259H26.0888C26.1725 33.8259 26.2144 33.8705 26.2144 33.9596C26.2061 34.5749 26.5785 35.1133 27.3319 35.5748C28.0852 36.0364 28.9934 36.2671 30.0565 36.2671C31.1195 36.2671 32.0068 36.0162 32.7183 35.5142C33.4298 35.0203 33.7857 34.4333 33.7857 33.753C33.7857 33.0729 33.476 32.5102 32.8566 32.0648C32.2372 31.6195 31.3037 31.3482 30.0565 31.2511C27.7797 31.0486 26.0553 30.5669 24.8834 29.8057C23.7199 29.0445 23.1382 27.8583 23.1382 26.2469C23.1382 24.6357 23.7743 23.3564 25.0467 22.409C26.3274 21.4697 27.8467 21 29.6044 21C31.354 21 32.8733 21.4535 34.1624 22.3603C35.4515 23.2673 36.096 24.4939 36.096 26.0405C36.096 26.1215 36.0625 26.1659 35.9955 26.174H33.0071C32.9234 26.174 32.8816 26.1296 32.8816 26.0405C32.8983 25.4575 32.597 24.9272 31.9776 24.4495C31.3582 23.9717 30.5797 23.7328 29.6422 23.7328C28.7046 23.7328 27.9179 23.9717 27.2816 24.4495C26.6455 24.9191 26.3358 25.494 26.3525 26.174C26.3525 26.8543 26.6873 27.34 27.357 27.6317C28.0267 27.923 28.7967 28.1173 29.6673 28.2147C32.1198 28.4898 33.7522 28.8745 34.5642 29.3684C35.6439 30.0243 36.3513 30.7976 36.6861 31.6882C36.8954 32.255 37 32.9029 37 33.6315Z"/>
<path d="M31.3155 3.00446L38 9.49919L31.3106 15.9986L26.9034 16L31.9926 11.0553L22 11.0647L22.0011 7.91988L31.956 7.91064L26.9018 3L31.3155 3.00446Z"/>
<path d="M10.7333 23.0048L17 29.9992L10.7287 36.9984L6.59694 37L11.3681 31.675L2 31.685L2.00109 28.2984L11.3337 28.2883L6.59542 23L10.7333 23.0048Z"/>
</svg>
