<?xml version="1.0" standalone="no"?>
<!DOCTYPE svg PUBLIC "-//W3C//DTD SVG 1.1//EN" "http://www.w3.org/Graphics/SVG/1.1/DTD/svg11.dtd" >
<svg>
<metadata>
Created by FontForge 20090622 at Sun Jun 28 16:45:14 2020
 By deploy user
Copyright (c) 2008 by Stefan Gandl. All rights reserved.
</metadata>
<defs>
<font id="NBInternationalLightWebfont" horiz-adv-x="462" >
  <font-face 
    font-family="NB International"
    font-weight="300"
    font-stretch="normal"
    units-per-em="2048"
    panose-1="2 11 3 3 4 1 0 2 0 4"
    ascent="1638"
    descent="-410"
    x-height="1036"
    cap-height="1442"
    bbox="-283 -426 2087 1866"
    underline-thickness="174"
    underline-position="-100"
    unicode-range="U+0009-U+FB04"
  />
<missing-glyph horiz-adv-x="748" 
d="M68 0v1365h544v-1365h-544zM136 68h408v1229h-408v-1229z" />
    <glyph glyph-name="uniFB01" unicode="fi" horiz-adv-x="1171" 
d="M47 924v102q0 10 10 10h195q10 0 10 11v135q0 260 277 260h112q11 0 11 -10v-103q0 -10 -11 -10h-110q-65 0 -100 -36t-35 -101v-135q0 -11 10 -11h235q11 0 11 -10v-102q0 -11 -11 -11h-235q-10 0 -10 -10v-893q0 -10 -11 -10h-123q-10 0 -10 10v893q0 10 -10 10h-195
q-10 0 -10 11zM817 1268v164q0 10 10 10h164q10 0 10 -10v-164q0 -11 -10 -11h-164q-10 0 -10 11zM838 10v1016q0 10 10 10h123q10 0 10 -10v-1016q0 -10 -10 -10h-123q-10 0 -10 10z" />
    <glyph glyph-name="uniFB02" unicode="fl" horiz-adv-x="1130" 
d="M47 924v102q0 10 10 10h195q10 0 10 11v135q0 260 277 260h112q11 0 11 -10v-103q0 -10 -11 -10h-110q-65 0 -100 -36t-35 -101v-135q0 -11 10 -11h235q11 0 11 -10v-102q0 -11 -11 -11h-235q-10 0 -10 -10v-893q0 -10 -11 -10h-123q-10 0 -10 10v893q0 10 -10 10h-195
q-10 0 -10 11zM817 10v1422q0 10 10 10h123q11 0 11 -10v-1422q0 -10 -11 -10h-123q-10 0 -10 10z" />
    <glyph glyph-name=".notdef" horiz-adv-x="748" 
d="M68 0v1365h544v-1365h-544zM136 68h408v1229h-408v-1229z" />
    <glyph glyph-name="glyph1" horiz-adv-x="0" 
 />
    <glyph glyph-name="glyph2" horiz-adv-x="682" 
 />
    <glyph glyph-name="glyph3" horiz-adv-x="20" 
 />
    <glyph glyph-name="glyph3" horiz-adv-x="20" 
 />
    <glyph glyph-name="uni0009" unicode="&#x9;" horiz-adv-x="532" 
 />
    <glyph glyph-name="uni000A" unicode="&#xa;" horiz-adv-x="532" 
 />
    <glyph glyph-name="uni000D" unicode="&#xd;" horiz-adv-x="20" 
 />
    <glyph glyph-name="uni0010" horiz-adv-x="532" 
 />
    <glyph glyph-name="uni0011" horiz-adv-x="532" 
 />
    <glyph glyph-name="uni0012" horiz-adv-x="532" 
 />
    <glyph glyph-name="uni0013" horiz-adv-x="532" 
 />
    <glyph glyph-name="uni0014" horiz-adv-x="532" 
 />
    <glyph glyph-name="uni001E" horiz-adv-x="20" 
 />
    <glyph glyph-name="uni001F" horiz-adv-x="20" 
 />
    <glyph glyph-name="space" unicode=" " horiz-adv-x="503" 
 />
    <glyph glyph-name="exclam" unicode="!" horiz-adv-x="438" 
d="M96 10v205q0 10 10 10h205q11 0 11 -10v-205q0 -10 -11 -10h-205q-10 0 -10 10zM133 1036v396q0 10 10 10h131q11 0 11 -10v-396l-21 -600q0 -10 -10 -10h-90q-10 0 -10 10z" />
    <glyph glyph-name="quotedbl" unicode="&#x22;" horiz-adv-x="729" 
d="M129 1169v263q0 10 10 10h123q10 0 10 -10v-263l-20 -245q0 -11 -10 -11h-82q-10 0 -10 11zM436 1169v263q0 10 10 10h123q11 0 11 -10v-263l-21 -245q0 -11 -10 -11h-82q-10 0 -10 11z" />
    <glyph glyph-name="numbersign" unicode="#" horiz-adv-x="1179" 
d="M47 457v121q0 10 10 10h226q9 0 12 10l51 225q3 13 -10 13h-279q-10 0 -10 10v121q0 10 10 10h316q9 0 12 8l98 451q3 6 11 6h112q6 0 9 -5t1 -10l-96 -438q-1 -4 2 -8t8 -4h209q11 0 13 10l98 449q3 6 10 6h113q6 0 9 -5t1 -10l-96 -438q-3 -12 10 -12h203q10 0 10 -10
v-121q0 -10 -10 -10h-240q-8 0 -12 -11l-53 -225q-3 -12 10 -12h295q10 0 10 -10v-121q0 -11 -10 -11h-332q-7 0 -10 -8l-96 -432q-3 -6 -11 -6h-110q-6 0 -9.5 4.5t-1.5 9.5l95 422q3 10 -9 10h-215q-7 0 -10 -10l-96 -430q-3 -6 -10 -6h-111q-6 0 -9 4.5t-1 9.5l92 420
q1 4 -2 8t-8 4h-189q-10 0 -10 11zM428 602q-1 -6 2 -10t8 -4h213q8 0 11 10l51 225q2 5 -1 9t-7 4h-211q-9 0 -13 -11z" />
    <glyph glyph-name="dollar" unicode="$" horiz-adv-x="1239" 
d="M96 395q0 11 10 11h123q11 0 11 -11q0 -98 79.5 -178t215.5 -104q14 -3 14 8v555q0 10 -10 12q-70 11 -127 26.5t-114 45t-95 69t-62 100t-24 136.5q0 109 60.5 195.5t154.5 134.5t207 61q10 2 10 10v166q0 10 8 10h125q10 0 10 -10v-166q0 -9 13 -12q66 -11 124.5 -31.5
t112 -55t91.5 -79t60.5 -106.5t22.5 -135q0 -11 -10 -11h-123q-10 0 -10 11q0 117 -72.5 189t-193.5 95q-6 1 -10.5 -2t-4.5 -8v-514q0 -12 15 -12q63 -7 113.5 -17t106.5 -28.5t97 -48t75 -70.5t52 -101t18 -135q0 -170 -130 -282t-337 -129q-10 0 -10 -11v-168
q0 -10 -10 -10h-125q-8 0 -8 10v170q0 11 -12 11q-203 23 -322 137.5t-119 271.5zM260 1065q0 -45 11.5 -80t40 -69.5t85.5 -60t140 -40.5q5 -2 8.5 1t3.5 9v498q0 10 -10 10q-121 -21 -200 -93t-79 -175zM692 115q0 -5 5 -8.5t12 -2.5q137 18 227 94.5t90 196.5
q0 58 -18 104t-47 75t-72 49.5t-86.5 31t-97.5 17.5q-13 0 -13 -10v-547z" />
    <glyph glyph-name="percent" unicode="%" horiz-adv-x="1693" 
d="M109 1053q0 409 303 409q301 0 301 -409q0 -406 -301 -406q-303 0 -303 406zM215 1053q0 -152 46.5 -227.5t150.5 -75.5q103 0 148.5 75.5t45.5 227.5q0 156 -45.5 231.5t-148.5 75.5q-105 0 -151 -75.5t-46 -231.5zM347.5 5q-2.5 5 0.5 11l869 1422q4 4 8 4h90
q6 0 8.5 -5.5t-0.5 -11.5l-872 -1421q-4 -4 -9 -4h-86q-6 0 -8.5 5zM961 385q0 410 303 410q301 0 301 -410q0 -405 -301 -405q-303 0 -303 405zM1067 385q0 -152 46.5 -227.5t150.5 -75.5q103 0 148.5 75.5t45.5 227.5q0 156 -45.5 231.5t-148.5 75.5q-105 0 -151 -75.5
t-46 -231.5z" />
    <glyph glyph-name="ampersand" unicode="&#x26;" horiz-adv-x="1368" 
d="M102 430q0 79 26 148.5t70 121t88 87.5t95 65q7 3 7.5 9t-3.5 9q-83 90 -122.5 160.5t-39.5 138.5q0 129 91 211t259 82q156 0 249 -89t93 -204q0 -58 -20.5 -109t-47.5 -85t-72.5 -67t-76 -50t-77.5 -39q-15 -8 -7 -16l408 -449q5 -5 10 0q35 43 35 166v168q0 10 10 10
h123q10 0 10 -10v-168q0 -161 -67 -262q-7 -11 4 -22l9 -10l18.5 -18.5t23 -21.5t28 -21.5t29 -15t29.5 -6.5v-143q-102 8 -221 127q-10 10 -21 2q-81 -67 -200 -108t-248 -41q-112 0 -205.5 35.5t-155.5 96.5t-96.5 143t-34.5 175zM246 430q0 -149 101 -235t267 -86
q86 0 178.5 30.5t151.5 89.5q10 10 2 21l-454 493q-11 11 -23 5q-41 -21 -77 -47.5t-70.5 -65t-55 -91.5t-20.5 -114zM367 1169q-3 -101 149 -247q7 -5 16 -2l84 34q156 73 156 215q0 79 -60.5 124.5t-138.5 45.5q-53 0 -97.5 -15.5t-76.5 -55.5t-32 -99zM1284 0v143
q10 0 10 -10v-123q0 -10 -10 -10z" />
    <glyph glyph-name="quotesingle" unicode="'" horiz-adv-x="421" 
d="M129 1169v263q0 10 10 10h123q10 0 10 -10v-263l-20 -245q0 -11 -10 -11h-82q-10 0 -10 11z" />
    <glyph glyph-name="parenleft" unicode="(" horiz-adv-x="471" 
d="M31 518q0 236 77 486t191 428q5 10 14 10h123q5 0 7 -3t-1 -7q-130 -202 -199 -436t-69 -478t69 -477t199 -436q3 -5 1 -8t-7 -3h-123q-9 0 -14 11q-114 178 -191 427.5t-77 485.5z" />
    <glyph glyph-name="parenright" unicode=")" horiz-adv-x="471" 
d="M32 -403q-2 3 1 8q130 203 199 436t69 477t-69 478t-199 436q-3 4 -1 7t7 3h123q9 0 14 -10q114 -178 191 -428t77 -486t-77 -485.5t-191 -427.5q-6 -11 -14 -11h-123q-5 0 -7 3z" />
    <glyph glyph-name="asterisk" unicode="*" horiz-adv-x="823" 
d="M76 1174l26 77q3 9 13 6l102 -32l133 -62q6 -3 11.5 1t3.5 10l-15 149v109q0 10 10 10h82q11 0 11 -10v-109l-15 -149q-1 -4 3.5 -8.5t9.5 -2.5l135 62l102 32q9 3 12 -6l27 -77q4 -11 -8 -15l-103 -33l-147 -32q-7 -1 -8.5 -8t4.5 -13l98 -106l64 -88q2 -3 1.5 -7.5
t-3.5 -5.5l-68 -49q-3 -3 -7.5 -2t-6.5 4l-64 88l-67 117q-11 14 -21 0l-67 -117l-64 -88q-2 -3 -6.5 -4t-7.5 2l-68 49q-3 1 -3.5 5.5t1.5 7.5l64 88l98 106q7 9 3.5 15t-11.5 8l-144 30l-102 33q-12 4 -8 15z" />
    <glyph glyph-name="plus" unicode="+" horiz-adv-x="1232" 
d="M88 457v123q0 10 10 10h416q10 0 10 10v426q0 10 11 10h122q11 0 11 -10v-426q0 -10 10 -10h436q10 0 10 -10v-123q0 -11 -10 -11h-436q-10 0 -10 -10v-426q0 -10 -11 -10h-122q-11 0 -11 10v426q0 10 -10 10h-416q-10 0 -10 11z" />
    <glyph glyph-name="comma" unicode="," 
d="M109 10v205q0 10 10 10h205q10 0 10 -10v-213q0 -227 -215 -227q-10 0 -10 10v82q0 10 10 10q92 0 92 113q0 10 -10 10h-82q-10 0 -10 10z" />
    <glyph glyph-name="hyphen" unicode="-" horiz-adv-x="778" 
d="M88 457v123q0 10 10 10h561q11 0 11 -10v-123q0 -11 -11 -11h-561q-10 0 -10 11z" />
    <glyph glyph-name="period" unicode="." 
d="M109 10v205q0 10 10 10h205q10 0 10 -10v-205q0 -10 -10 -10h-205q-10 0 -10 10z" />
    <glyph glyph-name="slash" unicode="/" horiz-adv-x="739" 
d="M49 14l483 1422q3 6 11 6h116q6 0 9.5 -5t1.5 -10l-469 -1421q-3 -6 -11 -6h-131q-6 0 -9 4.5t-1 9.5z" />
    <glyph glyph-name="zero" unicode="0" horiz-adv-x="1269" 
d="M115 719q0 743 551 743q122 0 216.5 -36.5t156.5 -100.5t101.5 -159t56.5 -204t17 -243q0 -133 -17 -241.5t-56.5 -203t-101.5 -158t-156.5 -100t-216.5 -36.5q-551 0 -551 739zM268 719q0 -311 93 -464t305 -153q211 0 303 153t92 464q0 315 -92 467.5t-303 152.5
q-213 0 -305.5 -152.5t-92.5 -467.5z" />
    <glyph glyph-name="one" unicode="1" horiz-adv-x="755" 
d="M51 1047v102q0 10 10 10h261q58 0 99.5 41.5t41.5 99.5v123v9q0 10 10 10h123q10 0 10 -10v-1422q0 -10 -10 -10h-123q-10 0 -10 10v955q0 29 -21.5 50t-50.5 21h-330q-10 0 -10 11z" />
    <glyph glyph-name="two" unicode="2" horiz-adv-x="1103" 
d="M68 10v113q0 4 10 14l606 582l44 43t49.5 56t52.5 71.5t36 76.5t15 83q-1 49 -20 98.5t-55.5 93t-100.5 71t-144 27.5q-128 0 -217 -80t-90 -212q0 -11 -10 -11h-123q-10 0 -10 11q0 102 35.5 182.5t98 130.5t143 76t173.5 26q214 0 338.5 -116.5t124.5 -296.5
q0 -69 -21 -133t-61 -119.5t-71.5 -90t-77.5 -77.5l-517 -488q-6 -6 -3 -12t10 -6h731q10 0 10 -10v-103q0 -10 -10 -10h-936q-10 0 -10 10z" />
    <glyph glyph-name="three" unicode="3" horiz-adv-x="1136" 
d="M98 395q0 11 11 11h122q11 0 11 -11q0 -131 82.5 -212t230.5 -81h2q155 0 249.5 75t94.5 204q0 132 -97.5 211.5t-246.5 79.5h-96q-10 0 -10 10v102q0 11 10 11h96q139 0 226 72.5t87 191.5q0 113 -88 196.5t-225 83.5q-134 0 -219.5 -75t-85.5 -217q0 -11 -10 -11h-123
q-10 0 -10 11q0 105 34 185.5t95.5 130t142 74.5t176.5 25q198 0 325.5 -116t127.5 -287q0 -59 -19.5 -111.5t-47 -86t-60 -59.5t-55 -37.5t-35.5 -14.5q-8 -2 -8.5 -10t8.5 -11q31 -10 69 -35.5t81 -67t72 -106.5t29 -139q0 -182 -136 -291.5t-351 -109.5h-2
q-217 0 -337 112.5t-120 302.5z" />
    <glyph glyph-name="four" unicode="4" horiz-adv-x="1157" 
d="M68 358v103q0 11 6 20l604 951q7 10 16 10h144q10 0 10 -10v-951q0 -10 10 -10h242q10 0 10 -10v-103q0 -10 -10 -10h-242q-10 0 -10 -10v-328q0 -10 -10 -10h-123q-10 0 -10 10v328q0 10 -11 10h-616q-10 0 -10 10zM232.5 474.5q2.5 -3.5 7.5 -3.5h454q11 0 11 10v707
q0 7 -4 10t-9 1.5t-8 -7.5l-451 -709q-3 -5 -0.5 -8.5z" />
    <glyph glyph-name="five" unicode="5" horiz-adv-x="1175" 
d="M139 395q0 11 11 11h122q11 0 11 -11q0 -46 19.5 -94t59 -94t110.5 -75.5t163 -29.5q159 0 257.5 105t98.5 287q0 169 -99.5 277t-256.5 108q-224 0 -334 -160q-7 -10 -16 -10h-117q-10 0 -10 10l92 713q2 10 16 10h750q10 0 10 -10v-103q0 -10 -10 -10h-633
q-14 0 -16 -12l-56 -410q-1 -10 7.5 -11.5t11.5 3.5q33 46 120 79t205 33q209 0 344.5 -141.5t135.5 -365.5q0 -236 -138 -375t-362 -139q-103 0 -189 28.5t-141.5 72.5t-94 100.5t-55 110.5t-16.5 103z" />
    <glyph glyph-name="six" unicode="6" horiz-adv-x="1193" 
d="M117 487q0 155 78 301l344 644q5 10 16 10h119q14 0 8 -12l-233 -459q-2 -5 3 -9.5t13 -0.5q87 40 184 40q209 0 346.5 -144t137.5 -370t-136.5 -366.5t-373.5 -140.5q-235 0 -370.5 140.5t-135.5 366.5zM260 487q0 -180 93 -282.5t270 -102.5q178 0 272 102.5t94 282.5
q0 181 -94 286.5t-272 105.5q-176 0 -269.5 -105.5t-93.5 -286.5z" />
    <glyph glyph-name="seven" unicode="7" horiz-adv-x="1038" 
d="M68 1329v103q0 10 10 10h903q10 0 10 -10v-86q0 -22 -6 -37l-498 -1299q-3 -10 -12 -10h-133q-11 0 -8 10l493 1299q3 10 -8 10h-741q-10 0 -10 10z" />
    <glyph glyph-name="eight" unicode="8" horiz-adv-x="1200" 
d="M139 381q0 66 20 123t49 94t65.5 66t65 43.5t52.5 21.5q9 3 8.5 11t-8.5 10q-23 5 -56 24.5t-71 54.5t-64 96t-26 134q0 171 127.5 287t325.5 116t325 -116t127 -287q0 -59 -19.5 -111.5t-47 -86t-60 -59.5t-55 -37.5t-35.5 -14.5q-8 -2 -8.5 -10t8.5 -11
q31 -10 69 -35.5t81.5 -67t72.5 -106.5t29 -139q0 -182 -136 -291.5t-351 -109.5t-351.5 109.5t-136.5 291.5zM283 381q0 -129 94.5 -204t249.5 -75t249.5 75t94.5 204q0 132 -97.5 211.5t-246.5 79.5t-246.5 -79.5t-97.5 -211.5zM313 1059q0 -119 87.5 -191.5t226.5 -72.5
t226 72.5t87 191.5q0 113 -88 196.5t-225 83.5t-225.5 -83.5t-88.5 -196.5z" />
    <glyph glyph-name="nine" unicode="9" horiz-adv-x="1193" 
d="M117 954q0 226 136.5 367t373.5 141q235 0 370.5 -141t135.5 -367q0 -155 -78 -301l-344 -643q-5 -10 -17 -10h-119q-14 0 -8 12l234 459q2 5 -3.5 9.5t-13.5 0.5q-90 -41 -184 -41q-209 0 -346 144t-137 370zM260 954q0 -181 94.5 -286t272.5 -105q176 0 269 105t93 286
t-92.5 283t-269.5 102q-178 0 -272.5 -102.5t-94.5 -282.5z" />
    <glyph glyph-name="colon" unicode=":" 
d="M109 10v205q0 10 10 10h205q10 0 10 -10v-205q0 -10 -10 -10h-205q-10 0 -10 10zM109 821v205q0 10 10 10h205q10 0 10 -10v-205q0 -10 -10 -10h-205q-10 0 -10 10z" />
    <glyph glyph-name="semicolon" unicode=";" horiz-adv-x="503" 
d="M96 821v205q0 10 10 10h205q11 0 11 -10v-205q0 -10 -11 -10h-205q-10 0 -10 10zM100 10v205q0 10 11 10h204q11 0 11 -10v-213q0 -227 -215 -227q-11 0 -11 10v82q0 10 11 10q92 0 92 113q0 10 -10 10h-82q-11 0 -11 10z" />
    <glyph glyph-name="less" unicode="&#x3c;" horiz-adv-x="1036" 
d="M49 426v184q0 10 10 13l914 411q10 3 10 -8v-129q0 -11 -10 -14l-780 -355q-6 -3 -6 -10t6 -10l780 -354q10 -3 10 -15v-129q0 -11 -10 -8l-914 412q-10 3 -10 12z" />
    <glyph glyph-name="equal" unicode="=" horiz-adv-x="1085" 
d="M68 227v123q0 10 10 10h909q10 0 10 -10v-123q0 -10 -10 -10h-909q-10 0 -10 10zM68 688v123q0 10 10 10h909q10 0 10 -10v-123q0 -10 -10 -10h-909q-10 0 -10 10z" />
    <glyph glyph-name="greater" unicode="&#x3e;" horiz-adv-x="1036" 
d="M49 10v129q0 12 10 15l781 354q6 3 6 10t-6 10l-781 355q-10 3 -10 14v129q0 11 10 8l914 -411q10 -3 10 -13v-184q0 -9 -10 -12l-914 -412q-10 -3 -10 8z" />
    <glyph glyph-name="question" unicode="?" horiz-adv-x="1036" 
d="M72 1047q0 176 123.5 295.5t324.5 119.5q224 0 349.5 -111.5t125.5 -301.5q0 -62 -14 -111.5t-35 -81.5t-58.5 -63t-69 -50l-83 -49.5t-86.5 -54.5q-55 -30 -55 -82v-121q0 -10 -10 -10h-123q-10 0 -10 10v144q0 55 34.5 96t106.5 84q117 69 170 112t71.5 80.5t18.5 96.5
q0 127 -86 208.5t-246 81.5q-139 0 -222 -89.5t-83 -202.5q0 -11 -10 -11h-123q-10 0 -10 11zM408 10v205q0 10 10 10h205q10 0 10 -10v-205q0 -10 -10 -10h-205q-10 0 -10 10z" />
    <glyph glyph-name="at" unicode="@" horiz-adv-x="2009" 
d="M37.5 307.5q-2.5 104.5 11.5 216.5q33 218 138 397.5t256.5 296.5t338 180.5t387.5 63.5t364.5 -61t274 -180t151.5 -294t-3 -403q-27 -135 -71.5 -237.5t-92 -159t-104.5 -91.5t-101.5 -45.5t-91.5 -10.5q-148 0 -190 157q-1 7 -8 8t-11 -4q-70 -70 -164 -115.5
t-202 -45.5q-87 0 -157.5 20t-118.5 56.5t-82 87t-48.5 110.5t-18 128t10.5 140q27 133 85.5 237.5t136 168.5t166 97.5t181.5 33.5q223 0 314 -133q3 -4 9 -4t7 4l45 100q7 10 16 10h99q10 0 10 -10l-143 -686q-28 -124 -9.5 -181t93.5 -57q38 0 78.5 22.5t81.5 69.5
t77 132t59 198q80 396 -102 607.5t-573 211.5q-243 0 -442.5 -103t-328 -288t-173.5 -428q-22 -119 -13.5 -226.5t39 -199t91 -166t142 -126.5t192 -80.5t241.5 -28.5q172 0 340 40.5t303 108.5q6 3 9 0t1 -8l-25 -104q-4 -13 -12 -17q-111 -56 -279 -99.5t-337 -43.5
q-135 0 -252 25.5t-207.5 72t-163 112.5t-119 147.5t-75 176.5t-31 199.5zM635.5 395q-1.5 -61 17 -114.5t51 -93t88.5 -62.5t128 -23q156 0 259.5 107t147.5 315q22 114 17 193t-41.5 127.5t-92.5 70t-135 21.5q-158 0 -272.5 -119t-153.5 -295q-12 -66 -13.5 -127z" />
    <glyph glyph-name="A" unicode="A" horiz-adv-x="1355" 
d="M82 10l471 1422q3 10 12 10h205q9 0 12 -10l471 -1422q3 -10 -8 -10h-131q-11 0 -14 10l-103 314q-3 10 -14 10h-631q-11 0 -14 -10l-102 -314q-3 -10 -15 -10h-131q-11 0 -8 10zM385 467q-3 -10 8 -10h551q9 0 6 10l-272 844q-3 7 -10.5 7t-10.5 -7z" />
    <glyph glyph-name="B" unicode="B" horiz-adv-x="1378" 
d="M158 10v1422q0 10 10 10h686q157 0 260 -115.5t103 -279.5q0 -59 -19.5 -111.5t-50 -87t-59.5 -56.5t-56 -34q-8 -3 -8.5 -10.5t8.5 -10.5q74 -26 146.5 -124.5t72.5 -217.5q0 -176 -115.5 -285.5t-293.5 -109.5h-674q-10 0 -10 10zM301 133q0 -10 10 -10h502
q128 0 211.5 80.5t83.5 191.5q0 110 -84 197.5t-197 87.5h-516q-10 0 -10 -10v-537zM301 813q0 -10 10 -10h502q100 5 180 74t80 170q0 115 -68.5 193.5t-191.5 78.5h-502q-10 0 -10 -10v-496z" />
    <glyph glyph-name="C" unicode="C" horiz-adv-x="1388" 
d="M111 721q0 163 43.5 299t124.5 234t203 153t272 55q108 0 203 -33t158 -82t109 -107t67.5 -108t23.5 -85q0 -11 -10 -11h-121q-11 0 -15 11q-10 30 -28.5 64t-54.5 76t-80 74.5t-110.5 55t-141.5 22.5q-238 0 -366 -162t-128 -456t128 -456.5t366 -162.5q75 0 141.5 22.5
t110.5 55.5t80 75t54.5 76t28.5 64q4 11 15 11h121q10 0 10 -11q-2 -35 -23.5 -85t-67.5 -108t-109 -107t-158 -82t-203 -33q-150 0 -272 55t-203 153t-124.5 234t-43.5 299z" />
    <glyph glyph-name="D" unicode="D" horiz-adv-x="1398" 
d="M154 10v1422q0 10 10 10h520q157 -1 279.5 -55t200 -152t117.5 -231.5t40 -296.5q0 -333 -161.5 -520t-475.5 -187h-520q-10 0 -10 10zM297 133q0 -10 10 -10h377q231 0 357 149t126 435q0 284 -128 448t-355 164h-377q-10 0 -10 -10v-1176z" />
    <glyph glyph-name="E" unicode="E" horiz-adv-x="1243" 
d="M158 10v1422q0 10 10 10h962q11 0 11 -10v-103q0 -10 -11 -10h-819q-10 0 -10 -10v-496q0 -10 10 -10h731q11 0 11 -10v-103q0 -10 -11 -10h-731q-10 0 -10 -10v-537q0 -10 10 -10h819q11 0 11 -10v-103q0 -10 -11 -10h-962q-10 0 -10 10z" />
    <glyph glyph-name="F" unicode="F" horiz-adv-x="1114" 
d="M158 10v1422q0 10 10 10h889q10 0 10 -10v-103q0 -10 -10 -10h-746q-10 0 -10 -10v-496q0 -10 10 -10h658q10 0 10 -10v-103q0 -10 -10 -10h-658q-10 0 -10 -10v-660q0 -10 -10 -10h-123q-10 0 -10 10z" />
    <glyph glyph-name="G" unicode="G" horiz-adv-x="1523" 
d="M86 721q0 218 75 384.5t222 261.5t348 95q128 0 232.5 -35t173.5 -95t112 -131.5t62 -153.5q3 -11 -8 -11h-117q-12 0 -17 11q-104 292 -438 292q-239 0 -365 -161.5t-126 -456.5t126 -457t365 -162q96 0 176.5 27t135.5 73t93.5 107.5t56 129.5t17.5 139v71q0 10 -10 10
h-459q-10 0 -10 11v102q0 10 10 10h602q11 0 11 -10v-762q0 -10 -11 -10h-100q-9 0 -12 10l-21 174q-1 9 -7.5 9.5t-10.5 -5.5q-58 -77 -188.5 -142.5t-272.5 -65.5q-210 0 -357 95.5t-217.5 260.5t-70.5 385z" />
    <glyph glyph-name="H" unicode="H" horiz-adv-x="1361" 
d="M150 10v1422q0 10 10 10h123q10 0 10 -10v-619q0 -10 10 -10h735q11 0 11 10v619q0 10 10 10h123q10 0 10 -10v-1422q0 -10 -10 -10h-123q-10 0 -10 10v660q0 10 -11 10h-735q-10 0 -10 -10v-660q0 -10 -10 -10h-123q-10 0 -10 10z" />
    <glyph glyph-name="I" unicode="I" 
d="M150 10v1422q0 10 10 10h123q10 0 10 -10v-1422q0 -10 -10 -10h-123q-10 0 -10 10z" />
    <glyph glyph-name="J" unicode="J" horiz-adv-x="935" 
d="M27 395q0 11 10 11h123q10 0 10 -11q0 -49 4 -84.5t18.5 -77.5t40 -68.5t73 -44.5t112.5 -18q67 0 115 18t74.5 44t41.5 67.5t19 77t4 82.5v1041q0 10 10 10h123q10 0 10 -10v-1041q0 -75 -9 -131.5t-34.5 -111.5t-68.5 -90t-115 -56.5t-170 -21.5q-113 0 -191.5 31
t-121 90t-60.5 130t-18 164z" />
    <glyph glyph-name="K" unicode="K" horiz-adv-x="1259" 
d="M150 10v1422q0 10 10 10h123q10 0 10 -10v-670q0 -5 3.5 -6.5t8.5 2.5l690 674q10 10 19 10h162q4 0 5.5 -3.5t-1.5 -6.5l-535 -531q-10 -10 -2 -22l567 -869q3 -4 1 -7t-7 -3h-145q-10 0 -17 10l-505 768q-1 3 -5.5 3t-7.5 -3l-219 -215q-12 -12 -12 -26v-527
q0 -10 -10 -10h-123q-10 0 -10 10z" />
    <glyph glyph-name="L" unicode="L" horiz-adv-x="1105" 
d="M150 10v1422q0 10 10 10h123q10 0 10 -10v-1299q0 -10 10 -10h746q10 0 10 -10v-103q0 -10 -10 -10h-889q-10 0 -10 10z" />
    <glyph glyph-name="M" unicode="M" horiz-adv-x="1740" 
d="M215 10v1422q0 10 10 10h252q12 0 15 -10l376 -1301q3 -7 10.5 -7t10.5 7l377 1301q3 10 14 10h252q10 0 10 -10v-1422q0 -10 -10 -10h-123q-10 0 -10 10v1299q0 5 -4.5 8t-9.5 1t-7 -9l-381 -1299q-3 -10 -12 -10h-213q-9 0 -12 10l-381 1299q-2 7 -7 9t-9.5 -1t-4.5 -8
v-1299q0 -10 -10 -10h-123q-10 0 -10 10z" />
    <glyph glyph-name="N" unicode="N" horiz-adv-x="1402" 
d="M150 10v1422q0 10 10 10h235q8 0 11 -10l663 -1303q5 -7 13 -5.5t8 7.5v1301q0 10 10 10h123q10 0 10 -10v-1422q0 -10 -10 -10h-230q-9 0 -14 10l-666 1301q-6 11 -13 8t-7 -10v-1299q0 -10 -10 -10h-123q-10 0 -10 10z" />
    <glyph glyph-name="O" unicode="O" horiz-adv-x="1482" 
d="M86 721q0 220 71 385t218 260.5t356 95.5t356 -95.5t218 -260.5t71 -385t-71 -385t-218 -260.5t-356 -95.5t-356 95.5t-218 260.5t-71 385zM240 721q0 -295 126 -457t365 -162t365.5 162t126.5 457t-126.5 456.5t-365.5 161.5t-365 -161.5t-126 -456.5z" />
    <glyph glyph-name="P" unicode="P" horiz-adv-x="1212" 
d="M150 10v1422q0 10 10 10h602q177 0 290 -120t113 -302q0 -183 -113 -302.5t-290 -119.5h-459q-10 0 -10 -10v-578q0 -10 -10 -10h-123q-10 0 -10 10zM293 731q0 -10 10 -10h438q123 0 202 91t79 208t-79 208t-202 91h-438q-10 0 -10 -10v-578z" />
    <glyph glyph-name="Q" unicode="Q" horiz-adv-x="1486" 
d="M115 721q0 220 71 385t218 260.5t356 95.5t356 -95.5t218 -260.5t71 -385q0 -387 -203 -578q-7 -7 0 -14l219 -219q3 -3 1.5 -6.5t-5.5 -3.5h-145q-11 0 -21 10l-147 147q-7 7 -19 0q-129 -77 -325 -77q-209 0 -356 95.5t-218 260.5t-71 385zM268 721q0 -295 126.5 -457
t365.5 -162q136 0 233 50q9 5 0 14l-207 207q-3 3 -1.5 6.5t6.5 3.5h149q6 0 16 -10l134 -133q7 -7 14 0q147 153 147 481q0 295 -126 456.5t-365 161.5t-365.5 -161.5t-126.5 -456.5z" />
    <glyph glyph-name="R" unicode="R" horiz-adv-x="1290" 
d="M150 10v1422q0 10 10 10h602q177 0 290 -120t113 -302q0 -140 -69.5 -248t-180.5 -145q-12 -4 -6 -17q49 -115 144 -321l127 -279q3 -10 -9 -10h-120q-12 0 -15 10l-260 578q-5 10 -14 10h-459q-10 0 -10 -10v-578q0 -10 -10 -10h-123q-10 0 -10 10zM293 731
q0 -10 10 -10h438q123 0 202 91t79 208t-79 208t-202 91h-438q-10 0 -10 -10v-578z" />
    <glyph glyph-name="S" unicode="S" horiz-adv-x="1228" 
d="M68 395q0 11 10 11h123q10 0 10 -11q0 -54 27.5 -106t76.5 -94t124.5 -67.5t164.5 -25.5q103 0 191 33t145 101.5t57 158.5q0 56 -15 100t-44.5 73.5t-63.5 49.5t-83 32.5t-90.5 18.5t-96.5 11q-82 7 -147 18.5t-137 39t-120.5 67.5t-80 106.5t-31.5 153.5
q0 92 42.5 168.5t113 125.5t159 76t181.5 27q96 0 184 -25.5t160 -74.5t115.5 -130.5t43.5 -184.5q0 -11 -10 -11h-123q-10 0 -10 11q0 139 -101.5 215.5t-258.5 76.5q-144 0 -248.5 -76.5t-104.5 -197.5q0 -50 15 -89t53.5 -76t115 -62t189.5 -35q64 -6 108.5 -12
t105.5 -19.5t102.5 -31t86.5 -48.5t72 -70.5t44.5 -97.5t17.5 -129q0 -184 -151.5 -299.5t-385.5 -115.5q-241 0 -388.5 120t-147.5 295z" />
    <glyph glyph-name="T" unicode="T" horiz-adv-x="1099" 
d="M47 1335v97q0 10 10 10h987q11 0 11 -10v-97q0 -10 -11 -10h-411q-10 0 -10 -10v-1305q0 -10 -11 -10h-123q-10 0 -10 10v1305q0 10 -10 10h-412q-10 0 -10 10z" />
    <glyph glyph-name="U" unicode="U" horiz-adv-x="1261" 
d="M131 479v953q0 10 10 10h123q10 0 10 -10v-953q0 -151 107 -264t256 -113q147 0 251.5 113t104.5 264v953q0 10 11 10h122q11 0 11 -10v-953q0 -138 -66 -253t-181 -180.5t-253 -65.5q-211 0 -358.5 144.5t-147.5 354.5z" />
    <glyph glyph-name="V" unicode="V" horiz-adv-x="1355" 
d="M82 1432q-3 10 8 10h131q12 0 15 -10l421 -1301q3 -7 10.5 -7t10.5 7l422 1301q3 10 14 10h131q11 0 8 -10l-471 -1422q-3 -10 -12 -10h-205q-9 0 -12 10z" />
    <glyph glyph-name="W" unicode="W" horiz-adv-x="1765" 
d="M70 1432q-3 10 8 10h129q11 0 14 -10l238 -1299q1 -7 5.5 -9.5t9 0t5.5 9.5l258 1299q3 10 15 10h239q12 0 15 -10l260 -1299q1 -7 5.5 -9.5t9 0t5.5 9.5l238 1299q3 10 14 10h129q11 0 8 -10l-280 -1422q-3 -10 -13 -10h-215q-9 0 -12 10l-272 1301q-1 9 -10 9t-11 -9
l-272 -1301q-3 -10 -12 -10h-216q-9 0 -12 10z" />
    <glyph glyph-name="X" unicode="X" horiz-adv-x="1284" 
d="M69 3q-2 3 1 7l473 703q7 10 0 20l-473 699q-3 4 -1 7t7 3h143q7 0 14 -10l388 -590q3 -6 10 -6t10 6l387 590q7 10 14 10h144q5 0 7 -3t-1 -7l-473 -699q-7 -10 0 -20l473 -703q3 -4 1 -7t-7 -3h-142q-9 0 -16 10l-387 592q-10 13 -20 0l-388 -592q-7 -10 -16 -10h-141
q-5 0 -7 3z" />
    <glyph glyph-name="Y" unicode="Y" horiz-adv-x="1339" 
d="M131.5 1438.5q1.5 3.5 5.5 3.5h139q12 0 19 -10l387 -633q3 -5 8 -5t8 5l392 633q7 10 16 10h141q9 0 4 -10l-479 -773q-8 -14 -8 -32v-617q0 -10 -10 -10h-123q-10 0 -10 10v617q0 19 -9 32l-479 773q-3 3 -1.5 6.5z" />
    <glyph glyph-name="Z" unicode="Z" horiz-adv-x="1148" 
d="M51 10v103q0 5 10 20l822 1170q3 5 0 10.5t-9 5.5h-813q-10 0 -10 10v103q0 10 10 10h986q10 0 10 -10v-103q0 -5 -10 -20l-820 -1170q-4 -6 -0.5 -11t9.5 -5h811q10 0 10 -10v-103q0 -10 -10 -10h-986q-10 0 -10 10z" />
    <glyph glyph-name="bracketleft" unicode="[" horiz-adv-x="724" 
d="M109 -395v1827q0 10 10 10h467q10 0 10 -10v-105q0 -8 -10 -8h-324q-10 0 -10 -10v-1581q0 -11 10 -11h324q10 0 10 -8v-104q0 -11 -10 -11h-467q-10 0 -10 11z" />
    <glyph glyph-name="backslash" unicode="\" horiz-adv-x="739" 
d="M49 1427q-2 5 1 10t9 5h117q7 0 10 -6l484 -1422q2 -5 -1.5 -9.5t-9.5 -4.5h-131q-7 0 -10 6z" />
    <glyph glyph-name="bracketright" unicode="]" horiz-adv-x="724" 
d="M109 -291q0 8 10 8h323q11 0 11 11v1581q0 10 -11 10h-323q-10 0 -10 8v105q0 10 10 10h467q10 0 10 -10v-1827q0 -11 -10 -11h-467q-10 0 -10 11v104z" />
    <glyph glyph-name="asciicircum" unicode="^" horiz-adv-x="1036" 
d="M111 748l303 684q3 10 12 10h184q10 0 13 -10l303 -684q1 -4 -1 -7.5t-7 -3.5h-130q-10 0 -14 11l-246 563q-3 7 -10 7t-10 -7l-246 -563q-4 -11 -14 -11h-129q-5 0 -7 3.5t-1 7.5z" />
    <glyph glyph-name="underscore" unicode="_" horiz-adv-x="1077" 
d="M68 10v123q0 10 10 10h901q10 0 10 -10v-123q0 -10 -10 -10h-901q-10 0 -10 10z" />
    <glyph glyph-name="grave" unicode="`" horiz-adv-x="561" 
d="M147 1427q-4 6 0 10.5t11 4.5h137q15 0 20 -15l101 -233q3 -6 -0.5 -10t-9.5 -4h-89q-13 0 -22 14z" />
    <glyph glyph-name="a" unicode="a" horiz-adv-x="1220" 
d="M68 295q0 144 112 225.5t326 81.5h256q25 0 36.5 0.5t27 5t22 13t11.5 25.5t5 42q0 38 -4.5 67t-23 65t-50.5 59t-92 39t-143 16q-299 0 -299 -248q0 -10 -10 -10h-123q-10 0 -10 10q0 121 60 206.5t158 125t224 39.5q215 0 336 -94t121 -275v-428q0 -79 23.5 -108
t88.5 -29h23q10 0 10 -10v-103q0 -10 -10 -10h-23q-103 0 -154.5 29t-78.5 94q-7 16 -19 4l-28 -28t-46 -34.5t-74 -40.5t-99.5 -28t-135.5 -16q-198 0 -307.5 86t-109.5 229zM211 295q0 -79 68.5 -136t205.5 -57q96 0 171 29t118.5 77t65.5 101.5t24 110.5v49q0 10 -10 10
h-340q-93 0 -156 -15.5t-93.5 -43.5t-42 -57.5t-11.5 -67.5z" />
    <glyph glyph-name="b" unicode="b" horiz-adv-x="1232" 
d="M150 10v1422q0 10 10 10h123q10 0 10 -10v-523q0 -6 6.5 -7.5t11.5 5.5q11 16 31.5 36t61.5 48.5t107.5 47t145.5 18.5q228 0 358 -148t130 -391q0 -245 -127 -391.5t-361 -146.5q-65 0 -123 13.5t-94.5 31.5t-67 41t-42.5 36t-19 23q-5 7 -10.5 5.5t-7.5 -7.5l-21 -113
q-3 -10 -10 -10h-102q-10 0 -10 10zM293 518q0 -190 88.5 -303t255.5 -113q169 0 266.5 114.5t97.5 301.5t-97.5 301.5t-266.5 114.5q-167 0 -255.5 -113t-88.5 -303z" />
    <glyph glyph-name="c" unicode="c" horiz-adv-x="1116" 
d="M68 518q0 245 134.5 392t372.5 147q91 0 168 -25t127.5 -64t87.5 -90t55.5 -98.5t24.5 -93.5q0 -10 -10 -10h-121q-9 0 -12 10q-31 119 -112.5 183.5t-207.5 64.5q-168 0 -266 -114.5t-98 -301.5t98 -301.5t266 -114.5q126 0 207.5 64.5t112.5 183.5q3 10 12 10h121
q10 0 10 -10q-6 -46 -24.5 -93.5t-55.5 -98t-87.5 -89.5t-127.5 -64t-168 -25q-238 0 -372.5 146.5t-134.5 391.5z" />
    <glyph glyph-name="d" unicode="d" horiz-adv-x="1232" 
d="M68 518q0 243 129.5 391t357.5 148q79 0 145.5 -18.5t107.5 -47t61.5 -48.5t31.5 -36q5 -7 12 -5.5t7 7.5v523q0 10 10 10h123q10 0 10 -10v-1422q0 -10 -10 -10h-103q-7 0 -10 10l-20 113q-2 6 -8 7.5t-11 -5.5q-7 -10 -19 -23t-42.5 -36t-67 -41t-94.5 -31.5
t-123 -13.5q-234 0 -360.5 146.5t-126.5 391.5zM211 518q0 -187 97.5 -301.5t266.5 -114.5q167 0 256 113t89 303t-89 303t-256 113q-169 0 -266.5 -114.5t-97.5 -301.5z" />
    <glyph glyph-name="e" unicode="e" horiz-adv-x="1185" 
d="M88 518q0 244 135 392.5t363 148.5q227 0 359 -149t132 -392q0 -31 -4 -43q-3 -10 -12 -10h-807q-10 0 -10 -10q0 -67 23.5 -130t66.5 -113t108.5 -80t143.5 -30q114 0 188.5 46.5t108.5 113.5q5 10 16 10h131q3 0 6 -1t5 -3t1 -6q-45 -137 -166 -209.5t-290 -72.5
q-222 0 -360 149t-138 389zM244 598q0 -10 10 -10h657q11 0 11 10q0 58 -19.5 115.5t-58 108.5t-105.5 82.5t-153 31.5q-83 0 -151 -35t-108 -88.5t-61.5 -109.5t-21.5 -105z" />
    <glyph glyph-name="f" unicode="f" horiz-adv-x="688" 
d="M47 924v102q0 10 10 10h195q10 0 10 11v135q0 260 277 260h112q11 0 11 -10v-103q0 -10 -11 -10h-110q-65 0 -100 -36t-35 -101v-135q0 -11 10 -11h235q11 0 11 -10v-102q0 -11 -11 -11h-235q-10 0 -10 -10v-893q0 -10 -11 -10h-123q-10 0 -10 10v893q0 10 -10 10h-195
q-10 0 -10 11z" />
    <glyph glyph-name="g" unicode="g" horiz-adv-x="1249" 
d="M84 518q0 241 132.5 390t354.5 149q71 0 133 -16.5t107.5 -46.5t63.5 -45t43 -40q6 -6 11 -4t7 8l20 113q3 10 11 10h102q10 0 10 -10v-952v-2v-29q0 -219 -129.5 -344t-355.5 -125q-188 0 -314.5 86.5t-142.5 210.5q0 10 10 10h119q12 0 15 -10q17 -68 100.5 -121
t212.5 -53q334 0 342 346v80q0 5 -6 7t-12 -3q-124 -147 -347 -147q-217 0 -352 149.5t-135 388.5zM227 518q0 -187 98 -301.5t267 -114.5q167 0 255.5 113t88.5 303t-88.5 303t-255.5 113q-169 0 -267 -114.5t-98 -301.5z" />
    <glyph glyph-name="h" unicode="h" horiz-adv-x="1183" 
d="M150 10v1422q0 10 10 10h123q10 0 10 -10v-498q0 -7 6.5 -9t11.5 3l28.5 28t40 31.5t59.5 35.5t75 23t98 11q114 -1 204 -38.5t145.5 -103.5t84.5 -151.5t29 -185.5v-568q0 -10 -10 -10h-123q-10 0 -10 10v568q0 56 -10 106t-34 96t-60 79.5t-91.5 53.5t-124.5 21
q-170 0 -244.5 -84t-74.5 -270v-570q0 -10 -10 -10h-123q-10 0 -10 10z" />
    <glyph glyph-name="i" unicode="i" horiz-adv-x="503" 
d="M150 1268v164q0 10 10 10h164q10 0 10 -10v-164q0 -11 -10 -11h-164q-10 0 -10 11zM170 10v1016q0 10 10 10h123q10 0 10 -10v-1016q0 -10 -10 -10h-123q-10 0 -10 10z" />
    <glyph glyph-name="j" unicode="j" horiz-adv-x="595" 
d="M27 -293q0 10 10 10h110q65 0 100.5 36.5t35.5 101.5v1171q0 10 10 10h123q10 0 10 -10v-1171q0 -261 -276 -261h-113q-10 0 -10 11v102zM262 1268v164q0 10 10 10h164q10 0 10 -10v-164q0 -11 -10 -11h-164q-10 0 -10 11z" />
    <glyph glyph-name="k" unicode="k" horiz-adv-x="1161" 
d="M154 10v1422q0 10 10 10h123q10 0 10 -10v-867q0 -5 4 -7t10 3l545 465q10 10 21 10h182q4 0 5.5 -3.5t-1.5 -6.5l-356 -305q-4 -4 0 -12l405 -699q3 -4 1 -7t-7 -3h-129q-7 0 -14 10l-357 608q-8 11 -18 3l-281 -242q-10 -10 -10 -21v-348q0 -10 -10 -10h-123
q-10 0 -10 10z" />
    <glyph glyph-name="l" unicode="l" 
d="M150 10v1422q0 10 10 10h123q10 0 10 -10v-1422q0 -10 -10 -10h-123q-10 0 -10 10z" />
    <glyph glyph-name="m" unicode="m" horiz-adv-x="1787" 
d="M129 10v1016q0 10 10 10h101q10 0 12 -10l20 -113q1 -9 9 -10.5t12 6.5q103 148 272 148q79 0 141.5 -16.5t102 -46t60.5 -53t40 -54.5q5 -7 11.5 -6.5t9.5 6.5q55 92 133 132t197 40q212 0 304.5 -121t92.5 -360v-568h2q0 -10 -10 -10h-123q-10 0 -10 10v568
q0 360 -277 360q-84 0 -140.5 -29t-84.5 -83t-38.5 -112t-10.5 -136v-568q0 -10 -11 -10h-123q-10 0 -10 10v568q0 61 -6 109t-23.5 96t-47 79.5t-80 51.5t-119.5 20q-273 0 -273 -356v-568q0 -10 -10 -10h-123q-10 0 -10 10z" />
    <glyph glyph-name="n" unicode="n" horiz-adv-x="1204" 
d="M150 10v1016q0 10 10 10h100q10 0 12 -10l21 -113q1 -9 8.5 -9.5t11.5 5.5q14 19 38 40.5t64 47.5t97.5 43t120.5 17q115 -1 200.5 -36t138 -101.5t78 -156.5t25.5 -206v-547q0 -10 -10 -10h-123q-10 0 -10 10v547q0 79 -17 144t-53 118.5t-100 83.5t-150 31
q-168 0 -243.5 -94t-75.5 -283v-547q0 -10 -10 -10h-123q-10 0 -10 10z" />
    <glyph glyph-name="o" unicode="o" horiz-adv-x="1212" 
d="M68 518q0 245 134.5 392t372.5 147q236 0 372 -148t136 -391t-136 -390.5t-372 -147.5q-238 0 -372.5 147.5t-134.5 390.5zM211 518q0 -187 98 -301.5t266 -114.5t266.5 114.5t98.5 301.5t-98.5 301.5t-266.5 114.5t-266 -114.5t-98 -301.5z" />
    <glyph glyph-name="p" unicode="p" horiz-adv-x="1232" 
d="M150 -395v1421q0 10 10 10h102q7 0 10 -10l21 -113q2 -6 7.5 -7.5t10.5 5.5q10 14 29.5 32.5t60.5 47t108.5 47.5t147.5 19q234 0 361 -147t127 -392q0 -243 -130 -390.5t-358 -147.5q-79 0 -145.5 18.5t-107.5 47t-61.5 48t-31.5 35.5q-5 7 -11.5 5.5t-6.5 -7.5v-522
q0 -11 -10 -11h-123q-10 0 -10 11zM293 518q0 -190 88.5 -303t255.5 -113q169 0 266.5 114.5t97.5 301.5t-97.5 301.5t-266.5 114.5q-167 0 -255.5 -113t-88.5 -303z" />
    <glyph glyph-name="q" unicode="q" horiz-adv-x="1232" 
d="M68 518q0 246 126.5 392.5t360.5 146.5q80 0 147.5 -19t108.5 -47.5t60.5 -47t29.5 -32.5q5 -7 11 -5.5t8 7.5l20 113q3 10 10 10h103q10 0 10 -10v-1421q0 -11 -10 -11h-123q-10 0 -10 11v522q0 6 -7 7.5t-12 -5.5q-11 -16 -31.5 -35.5t-61.5 -48t-107.5 -47
t-145.5 -18.5q-228 0 -357.5 147.5t-129.5 390.5zM211 518q0 -187 97.5 -301.5t266.5 -114.5q167 0 256 113t89 303t-89 303t-256 113q-169 0 -266.5 -114.5t-97.5 -301.5z" />
    <glyph glyph-name="r" unicode="r" horiz-adv-x="755" 
d="M150 10v1016q0 10 10 10h102q7 0 10 -10l21 -113q1 -9 8.5 -9.5t11.5 5.5q45 55 81 81q92 67 218 67h86q11 0 11 -10v-123q0 -11 -11 -11h-86q-169 0 -244 -86t-75 -270v-547q0 -10 -10 -10h-123q-10 0 -10 10z" />
    <glyph glyph-name="s" unicode="s" horiz-adv-x="1085" 
d="M68 350q0 10 10 10h123q10 0 10 -10q0 -40 14.5 -79.5t46.5 -79t96 -64.5t152 -25q47 0 91.5 6.5t99.5 24.5t89 60t34 104q0 35 -12.5 62.5t-38.5 45.5t-51.5 30t-67.5 20t-70 11.5t-74 8.5q-41 4 -63.5 6.5t-63.5 9t-66 13t-60.5 18.5t-57.5 26.5t-47.5 36t-39 47
t-23 60t-9.5 74.5q0 124 118 207.5t292 83.5q95 0 176 -22.5t142.5 -67t96.5 -116.5t35 -165q0 -10 -10 -10h-123q-10 0 -10 10q0 123 -81.5 185.5t-225.5 62.5q-121 0 -194 -49t-73 -119q0 -84 69.5 -119.5t217.5 -48.5q56 -5 92.5 -9.5t84.5 -12t79 -18t66.5 -26t57 -36.5
t41 -49.5t28 -66t8.5 -83.5q0 -161 -120 -239t-337 -78q-220 0 -336 106t-116 264z" />
    <glyph glyph-name="t" unicode="t" horiz-adv-x="716" 
d="M47 924v102q0 10 10 10h195q10 0 10 11v262q0 10 10 10h123q11 0 11 -10v-262q0 -11 10 -11h235q11 0 11 -10v-102q0 -11 -11 -11h-235q-10 0 -10 -10v-643q0 -76 33 -106.5t102 -30.5h110q11 0 11 -10v-103q0 -10 -11 -10h-112q-150 0 -213.5 62t-63.5 198v643
q0 10 -10 10h-195q-10 0 -10 11z" />
    <glyph glyph-name="u" unicode="u" horiz-adv-x="1183" 
d="M109 479v547q0 10 10 10h123q10 0 10 -10v-547q0 -79 17 -144t53 -118.5t99.5 -83.5t149.5 -31q168 0 244 94t76 283v547q0 10 10 10h123q10 0 10 -10v-1016q0 -10 -10 -10h-100q-10 0 -13 10l-20 113q-1 9 -9 9.5t-12 -5.5q-14 -19 -38 -40.5t-63.5 -47t-97 -42.5
t-120.5 -17q-115 1 -200.5 36t-138 101t-78 156t-25.5 206z" />
    <glyph glyph-name="v" unicode="v" horiz-adv-x="1056" 
d="M70 1026q-3 10 8 10h129q11 0 14 -10l287 -895q3 -9 10.5 -8.5t9.5 8.5l287 895q3 10 14 10h129q12 0 9 -10l-344 -1016q-3 -10 -13 -10h-184q-9 0 -12 10z" />
    <glyph glyph-name="w" unicode="w" horiz-adv-x="1527" 
d="M70 1026q-3 10 8 10h119q11 0 14 -10l197 -893q1 -7 5.5 -9.5t9 0t5.5 9.5l205 893q3 10 14 10h213q11 0 14 -10l205 -893q1 -7 6 -9.5t9.5 0t5.5 9.5l196 893q3 10 15 10h119q11 0 8 -10l-242 -1016q-3 -10 -12 -10h-187q-9 0 -12 10l-221 893q-2 9 -10.5 9.5
t-10.5 -9.5l-221 -893q-3 -10 -12 -10h-186q-10 0 -13 10z" />
    <glyph glyph-name="x" unicode="x" horiz-adv-x="1081" 
d="M104.5 3.5q-1.5 3.5 1.5 6.5l369 492q7 10 0 20l-369 504q-3 3 -1.5 6.5t6.5 3.5h127q6 0 16 -10l299 -397q10 -13 20 0l299 397q10 10 17 10h127q4 0 5.5 -3.5t-1.5 -6.5l-369 -504q-7 -10 0 -20l369 -492q3 -3 1.5 -6.5t-5.5 -3.5h-135q-7 0 -17 10l-291 383
q-10 13 -20 0l-291 -383q-10 -10 -16 -10h-135q-5 0 -6.5 3.5z" />
    <glyph glyph-name="y" unicode="y" horiz-adv-x="1089" 
d="M106 1026q-3 10 9 10h129q11 0 14 -10l287 -895q3 -7 10 -7t10 7l287 895q3 10 14 10h129q12 0 9 -10l-345 -1018l-51 -153q-19 -60 -32.5 -93.5t-35.5 -70.5t-48.5 -55t-66 -30t-93.5 -12h-211q-10 0 -10 11v102q0 10 10 10h209q32 0 53.5 8t37 30t23 40.5t21.5 59.5
q9 19 8.5 55t-18.5 90z" />
    <glyph glyph-name="z" unicode="z" horiz-adv-x="956" 
d="M51 10v103q0 5 10 20l594 764q4 6 0.5 11t-8.5 5h-561q-10 0 -10 11v102q0 10 10 10h739q11 0 11 -10v-102q0 -4 -11 -21l-594 -764q-4 -5 0 -10.5t9 -5.5h614q10 0 10 -10v-103q0 -10 -10 -10h-793q-10 0 -10 10z" />
    <glyph glyph-name="braceleft" unicode="{" horiz-adv-x="882" 
d="M150 467v102q0 11 10 11h112q43 0 76 32.5t33 77.5v518q0 103 57.5 168.5t192.5 65.5h112q11 0 11 -10v-105q0 -8 -11 -8h-110q-44 0 -77.5 -33.5t-33.5 -77.5v-456q0 -50 -6 -87.5t-14.5 -59t-24 -38t-27 -23.5t-30.5 -16q-8 -3 -8 -10t8 -10q22 -9 36.5 -20.5
t31.5 -34.5t25.5 -65t8.5 -101v-459q0 -44 33.5 -77.5t77.5 -33.5h110q11 0 11 -8v-104q0 -11 -11 -11h-112q-137 0 -193.5 62t-56.5 172v520q0 44 -32.5 76.5t-76.5 32.5h-112q-10 0 -10 10z" />
    <glyph glyph-name="bar" unicode="|" horiz-adv-x="401" 
d="M119 -395v1827q0 10 8 10h125q10 0 10 -10v-1827q0 -11 -10 -11h-125q-8 0 -8 11z" />
    <glyph glyph-name="braceright" unicode="}" horiz-adv-x="882" 
d="M150 -291q0 8 10 8h110q44 0 77.5 33.5t33.5 77.5v459q0 59 8.5 101t25.5 65t31.5 34.5t36.5 20.5q7 3 7 10t-7 10q-19 9 -30.5 16t-27 23.5t-24 38t-14.5 59t-6 87.5v456q0 44 -33.5 77.5t-77.5 33.5h-110q-10 0 -10 8v105q0 10 10 10h112q135 0 192.5 -65.5
t57.5 -168.5v-518q0 -45 33 -77.5t76 -32.5h112q11 0 11 -11v-102q0 -10 -11 -10h-112q-44 0 -76.5 -32.5t-32.5 -76.5v-520q0 -110 -56.5 -172t-193.5 -62h-112q-10 0 -10 11v104z" />
    <glyph glyph-name="asciitilde" unicode="~" horiz-adv-x="1044" 
d="M47 471v21q0 94 63.5 157.5t155.5 63.5q38 0 92 -14.5t82.5 -25.5l94.5 -38q165 -68 223 -68q29 0 52.5 21t23.5 49v65q0 11 10 11l123 -41q10 0 10 -10v-25q0 -91 -64 -154t-155 -63q-40 0 -91.5 13t-83.5 25t-94 38q-156 67 -223 67q-29 0 -52.5 -21t-23.5 -50v-62
q0 -10 -10 -10l-123 41q-10 0 -10 10z" />
    <glyph glyph-name="uni007F" horiz-adv-x="532" 
 />
    <glyph glyph-name="uni00A0" unicode="&#xa0;" horiz-adv-x="532" 
 />
    <glyph glyph-name="exclamdown" unicode="&#xa1;" horiz-adv-x="485" 
d="M127 1227v205q0 10 10 10h205q10 0 10 -10v-205q0 -10 -10 -10h-205q-10 0 -10 10zM164 10v396l20 600q0 10 11 10h90q10 0 10 -10l20 -600v-396q0 -10 -10 -10h-131q-10 0 -10 10z" />
    <glyph glyph-name="cent" unicode="&#xa2;" horiz-adv-x="1089" 
d="M68 518q0 226 116 370t324 165v176q0 10 8 10h125q10 0 10 -10v-178q93 -12 167.5 -52t118.5 -95t69 -109.5t32 -108.5q0 -10 -10 -10h-121q-9 0 -12 10q-31 119 -112.5 183.5t-207.5 64.5q-168 0 -266 -114.5t-98 -301.5t98 -301.5t266 -114.5q126 0 207.5 64.5
t112.5 183.5q3 10 12 10h121q10 0 10 -10q-6 -42 -22 -85.5t-47 -90.5t-73.5 -84.5t-106 -66t-138.5 -37.5v-181q0 -10 -10 -10h-125q-8 0 -8 10v179q-209 22 -324.5 164.5t-115.5 369.5z" />
    <glyph glyph-name="sterling" unicode="&#xa3;" horiz-adv-x="1320" 
d="M123 10v105q0 4 8 8h72q69 0 102 30.5t33 106.5v416q0 10 -10 10h-195q-10 0 -10 10v103q0 10 10 10h195q10 0 10 10v240q0 176 109 289.5t303 113.5q197 0 312.5 -103.5t115.5 -311.5q0 -11 -11 -11h-123q-10 0 -10 11q0 144 -76 218t-208 74q-133 0 -201 -81t-68 -199
v-240q0 -10 11 -10h249q11 0 11 -10v-103q0 -10 -11 -10h-249q-11 0 -11 -10v-416q0 -76 -26 -121q-3 -5 -1 -10.5t9 -5.5h561q10 0 10 10v268q0 11 10 11h123q11 0 11 -11v-391q0 -10 -11 -10h-1034q-10 0 -10 10z" />
    <glyph glyph-name="currency" unicode="&#xa4;" horiz-adv-x="1320" 
d="M70 244q-10 7 0 14l141 141q8 8 2 17q-70 131 -70 301q0 171 70 299q5 11 -2 18l-141 144q-10 7 0 14l108 108q8 11 15 0l129 -131q12 -12 22 -4q136 90 307 90q179 0 303 -88q14 -11 27 2l131 131q7 10 14 0l109 -108q11 -7 0 -14l-143 -144q-8 -8 -2 -20
q69 -135 69 -297q0 -174 -72 -303q-3 -7 5 -15l143 -141q11 -7 0 -14l-109 -109q-7 -11 -14 0l-133 131q-11 11 -25 0q-124 -88 -303 -88q-182 0 -309 88q-9 9 -18 0l-131 -131q-7 -11 -15 0zM287 719q0 -187 98 -301.5t266 -114.5t266.5 114.5t98.5 301.5t-98.5 301.5
t-266.5 114.5t-266 -114.5t-98 -301.5z" />
    <glyph glyph-name="yen" unicode="&#xa5;" horiz-adv-x="1280" 
d="M70.5 1438.5q1.5 3.5 5.5 3.5h139q11 0 18 -10l390 -633q6 -9 12 0l393 633q7 10 16 10h142q9 0 4 -10l-389 -625q-3 -5 -1 -9.5t7 -4.5h278q11 0 11 -11v-123q0 -10 -11 -10h-372q-11 0 -11 -10v-268q0 -11 11 -11h372q11 0 11 -10v-123q0 -10 -11 -10h-372
q-11 0 -11 -10v-197q0 -10 -10 -10h-123q-10 0 -10 10v197q0 10 -10 10h-375q-10 0 -10 10v123q0 10 10 10h375q10 0 10 11v268q0 10 -10 10h-375q-10 0 -10 10v123q0 11 10 11h277q5 0 7.5 4.5t0.5 7.5l-387 627q-3 3 -1.5 6.5z" />
    <glyph glyph-name="brokenbar" unicode="&#xa6;" horiz-adv-x="401" 
d="M119 -395v821q0 10 8 10h125q10 0 10 -10v-821q0 -11 -10 -11h-125q-8 0 -8 11zM119 610v822q0 10 8 10h125q10 0 10 -10v-822q0 -10 -10 -10h-125q-8 0 -8 10z" />
    <glyph glyph-name="section" unicode="&#xa7;" horiz-adv-x="1280" 
d="M76 602q0 106 49 187.5t129 132.5q10 5 6 14q-39 73 -39 174q0 140 109.5 246t277.5 106q189 0 307.5 -113t118.5 -302q0 -11 -10 -11h-123q-10 0 -10 11q0 130 -74 211t-209 81q-59 0 -107.5 -23t-77 -58t-43.5 -74t-15 -74q0 -28 4 -51t18.5 -54t39.5 -55.5t71.5 -49
t109.5 -40.5q197 -50 274 -83q192 -79 241 -223q18 -55 18 -120q0 -108 -48 -187.5t-128 -129.5q-14 -7 -7 -19q37 -73 37 -172q0 -140 -109.5 -246t-277.5 -106q-189 0 -307.5 113.5t-118.5 302.5q0 10 11 10h122q11 0 11 -10q0 -131 73.5 -212t208.5 -81q59 0 107.5 23
t77 58t44 74t15.5 74q0 28 -4 51t-18.5 54t-39.5 55.5t-72 49t-110 40.5q-197 50 -274 83q-191 79 -240 224q-18 54 -18 119zM219 602q0 -52 28 -95.5t59 -69t95.5 -52t94 -35.5t98.5 -27q9 -3 14 -4q164 -41 256 -110q133 74 133 225q0 52 -28 95.5t-59 69t-95.5 52
t-94 35.5t-98.5 27q-9 3 -14 4q-168 42 -256 110q-133 -76 -133 -225z" />
    <glyph glyph-name="dieresis" unicode="&#xa8;" horiz-adv-x="858" 
d="M102 1268v164q0 10 11 10h163q11 0 11 -10v-164q0 -11 -11 -11h-163q-11 0 -11 11zM551 1268v164q0 10 10 10h164q10 0 10 -10v-164q0 -11 -10 -11h-164q-10 0 -10 11z" />
    <glyph glyph-name="copyright" unicode="&#xa9;" horiz-adv-x="1599" 
d="M68 723q0 146 57 279t152.5 229.5t228.5 153.5t278 57q117 0 227 -36.5t198 -103t154.5 -155t103 -198t36.5 -226.5q0 -146 -57 -280t-153 -231t-229.5 -154.5t-279.5 -57.5q-194 0 -359 97.5t-261 264t-96 361.5zM129 723q0 -178 88 -330t239 -241t328 -89
q178 0 329.5 89t240 241t88.5 330q0 177 -88.5 328.5t-240 240t-329.5 88.5q-133 0 -254 -52.5t-209 -140.5t-140 -209.5t-52 -254.5zM385 721q0 199 105 321.5t286 122.5q73 0 136.5 -22t105 -55.5t72 -72t44 -71.5t13.5 -55q0 -6 -6 -6h-109q-5 0 -8 6q-9 26 -23.5 50.5
t-42 54.5t-75 48.5t-107.5 18.5q-126 0 -197 -90t-71 -250t71 -250t197 -90q59 0 106 17t75 45t43.5 54.5t23.5 55.5q3 6 8 6h105q10 0 10 -10q0 -26 -14.5 -60t-45.5 -71.5t-73.5 -69t-105 -52t-132.5 -20.5q-181 0 -286 123t-105 322z" />
    <glyph glyph-name="ordfeminine" unicode="&#xaa;" horiz-adv-x="704" 
d="M88 1051q0 77 60.5 121.5t175.5 44.5h139q22 0 31 1.5t16.5 11.5t7.5 32q0 27 -5 46.5t-21 41.5t-52.5 33.5t-91.5 11.5q-162 0 -162 -133q0 -7 -4 -7h-67q-4 0 -4 7q0 97 66 148.5t171 51.5q116 0 182 -51t66 -149v-230q0 -44 12.5 -60t46.5 -16h13q6 0 6 -4v-55
q0 -6 -6 -6h-13q-56 0 -83.5 15t-41.5 50q-3 9 -10 2q-75 -75 -207 -77q-107 0 -166 46.5t-59 123.5zM166 1051q0 -43 36.5 -74t110.5 -31q100 0 151.5 52t53.5 120v27q0 4 -6 4h-182q-96 0 -130 -27t-34 -71z" />
    <glyph glyph-name="guillemotleft" unicode="&#xab;" horiz-adv-x="1169" 
d="M125 510q-7 9 0 18l434 502q3 6 10 6h152q6 0 9 -4.5t1 -9.5l-434 -494q-6 -8 0 -18l434 -496q2 -5 -1 -9.5t-9 -4.5h-152q-7 0 -10 6zM504 510q-7 9 0 18l434 502q3 6 10 6h152q6 0 9 -4.5t1 -9.5l-434 -494q-6 -8 0 -18l434 -496q2 -5 -1 -9.5t-9 -4.5h-152q-7 0 -10 6
z" />
    <glyph glyph-name="logicalnot" unicode="&#xac;" horiz-adv-x="1292" 
d="M119 457v123q0 10 10 10h1014q10 0 10 -10v-570q0 -10 -10 -10h-123q-10 0 -10 10v426q0 10 -11 10h-870q-10 0 -10 11z" />
    <glyph glyph-name="uni00AD" unicode="&#xad;" horiz-adv-x="1036" 
d="M72 10v1422q0 10 10 10h842q10 0 10 -10v-1422q0 -10 -10 -10h-842q-10 0 -10 10zM123 96l354 625l-354 625v-1250zM150 49h708l-354 625zM150 1395l354 -627l354 627h-708zM530 721l355 -623v1245z" />
    <glyph glyph-name="registered" unicode="&#xae;" horiz-adv-x="1599" 
d="M68 723q0 146 57 279t152.5 230t228.5 154.5t278 57.5q146 0 279.5 -57.5t229.5 -154.5t153 -230t57 -279t-57 -280t-153 -231t-229.5 -154.5t-279.5 -57.5q-194 0 -359 97.5t-261 264t-96 361.5zM129 723q0 -178 88 -330t239 -241t328 -89q178 0 329.5 89t240 241
t88.5 330q0 177 -88.5 329t-240 241t-329.5 89q-132 0 -253.5 -52.5t-209.5 -141.5t-140 -210.5t-52 -254.5zM446 299v844q0 10 11 10h424q102 0 177 -77t75 -185q0 -78 -39 -140t-105 -92q-9 -3 -4 -14l156 -344q6 -12 -8 -12h-97q-15 0 -20 10l-142 326q-3 8 -14 8h-291
q-6 0 -6 -6v-328q0 -10 -10 -10h-96q-11 0 -11 10zM563 748q0 -11 10 -11h297q58 2 102 47t44 107q0 63 -45.5 110.5t-104.5 47.5h-293q-10 0 -10 -11v-290z" />
    <glyph glyph-name="macron" unicode="&#xaf;" horiz-adv-x="665" 
d="M61 1190v82q0 10 9 10h503q11 0 11 -10v-82q0 -10 -11 -10h-503q-9 0 -9 10z" />
    <glyph glyph-name="degree" unicode="&#xb0;" horiz-adv-x="817" 
d="M68 1130q0 137 96.5 234.5t232.5 97.5q137 0 234.5 -98t97.5 -234t-97.5 -232.5t-234.5 -96.5t-233 96.5t-96 232.5zM201 1130q0 -82 57 -139t139 -57q83 0 141 57t58 139q0 83 -58 141t-141 58q-82 0 -139 -58t-57 -141z" />
    <glyph glyph-name="plusminus" unicode="&#xb1;" horiz-adv-x="1232" 
d="M88 10v123q0 10 10 10h1016q10 0 10 -10v-123q0 -10 -10 -10h-1016q-10 0 -10 10zM88 862v123q0 10 10 10h416q10 0 10 11v426q0 10 11 10h122q11 0 11 -10v-426q0 -11 10 -11h436q10 0 10 -10v-123q0 -10 -10 -10h-436q-10 0 -10 -10v-426q0 -10 -11 -10h-122
q-11 0 -11 10v426q0 10 -10 10h-416q-10 0 -10 10z" />
    <glyph glyph-name="uni00B2" unicode="&#xb2;" horiz-adv-x="753" 
d="M109 657v60q0 5 6 8l325 315q109 102 107 177q0 59 -44.5 108t-127.5 49q-69 0 -117.5 -43t-48.5 -114q0 -7 -6 -7h-66q-6 0 -6 7q0 109 69.5 167t174.5 58q116 0 183 -63.5t67 -161.5q0 -111 -125 -226l-279 -264q-3 -3 -1.5 -6.5t5.5 -3.5h393q7 0 7 -4v-56q0 -6 -7 -6
h-503q-6 0 -6 6z" />
    <glyph glyph-name="uni00B3" unicode="&#xb3;" horiz-adv-x="747" 
d="M109 864q0 6 6 6h65q6 0 6 -6q0 -71 44 -114t124 -43h2q84 0 135.5 40.5t51.5 108.5q0 72 -53.5 115t-133.5 43h-51q-6 0 -6 6v55q0 6 6 6h51q74 0 122 39t48 103q0 62 -48 106.5t-122 44.5q-73 0 -119.5 -40.5t-46.5 -116.5q0 -7 -4 -7h-67q-4 0 -4 7q0 112 66 168.5
t175 56.5q107 0 175.5 -62.5t68.5 -156.5q0 -39 -15.5 -72.5t-37 -52t-38.5 -29t-26 -12.5q-5 -1 -5 -6t5 -7q42 -14 88.5 -63.5t46.5 -124.5q0 -97 -73.5 -156t-188.5 -59h-2q-116 0 -180.5 60.5t-64.5 162.5z" />
    <glyph glyph-name="acute" unicode="&#xb4;" horiz-adv-x="561" 
d="M145 1194l101 233q5 15 20 15h137q7 0 11 -4.5t0 -10.5l-148 -233q-9 -14 -22 -14h-88q-6 0 -10 4t-1 10z" />
    <glyph glyph-name="mu" unicode="&#xb5;" horiz-adv-x="1015" 
d="M72 10v1422q0 10 10 10h842q10 0 10 -10v-1422q0 -10 -10 -10h-842q-10 0 -10 10zM123 96l354 625l-354 625v-1250zM150 49h708l-354 625zM150 1395l354 -627l354 627h-708zM530 721l355 -623v1245z" />
    <glyph glyph-name="paragraph" unicode="&#xb6;" horiz-adv-x="1073" 
d="M80 1044q0 158 105.5 274.5t260.5 123.5h437q10 0 10 -10v-1827q0 -11 -10 -11h-123q-10 0 -10 11v1704q0 10 -11 10h-123q-10 0 -10 -10v-1704q0 -11 -10 -11h-123q-10 0 -10 11v1032q0 10 -10 10q-155 0 -264 117t-109 280z" />
    <glyph glyph-name="periodcentered" unicode="&#xb7;" horiz-adv-x="440" 
d="M47 575v310q0 10 10 10h305q11 0 11 -10v-310q0 -10 -11 -10h-305q-10 0 -10 10z" />
    <glyph glyph-name="cedilla" unicode="&#xb8;" horiz-adv-x="542" 
d="M68 -260q0 10 10 10h67q11 0 11 -10q0 -34 27 -61t67 -27q47 0 74.5 26.5t27.5 61.5q0 53 -35 76.5t-77 23.5q-27 0 -33 6l-17 17q-13 13 -2 24l93 74q6 5 3.5 12t-10.5 7q-11 0 -15.5 6.5t0 13t15.5 6.5h127q5 0 8.5 -3t2.5 -7l-125 -88q-5 -3 -3 -10t9 -7q62 0 112 -38
t50 -113q0 -67 -55 -116.5t-150 -49.5q-87 0 -134.5 49.5t-47.5 116.5z" />
    <glyph glyph-name="uni00B9" unicode="&#xb9;" horiz-adv-x="538" 
d="M109 1229v55q0 6 6 6h141q31 0 53.5 22t22.5 54v66v4q0 6 6 6h65q7 0 7 -6v-766q0 -6 -7 -6h-65q-6 0 -6 6v514q0 17 -11.5 28t-27.5 11h-178q-6 0 -6 6z" />
    <glyph glyph-name="ordmasculine" unicode="&#xba;" horiz-adv-x="745" 
d="M88 1174q0 131 73 210.5t201 79.5q127 0 201 -79.5t74 -210.5q0 -132 -73.5 -211.5t-201.5 -79.5q-129 0 -201.5 79.5t-72.5 211.5zM166 1174q0 -101 52.5 -163.5t143.5 -62.5t144 62.5t53 163.5q0 100 -53 161.5t-144 61.5t-143.5 -61.5t-52.5 -161.5z" />
    <glyph glyph-name="guillemotright" unicode="&#xbb;" horiz-adv-x="1169" 
d="M121 14l434 496q6 10 0 18l-434 494q-2 5 1 9.5t9 4.5h152q7 0 10 -6l434 -502q7 -9 0 -18l-434 -504q-3 -6 -10 -6h-152q-6 0 -9 4.5t-1 9.5zM500 14l434 496q6 10 0 18l-434 494q-2 5 1 9.5t9 4.5h152q7 0 10 -6l434 -502q7 -9 0 -18l-434 -504q-3 -6 -10 -6h-152
q-6 0 -9 4.5t-1 9.5z" />
    <glyph glyph-name="onequarter" unicode="&#xbc;" horiz-adv-x="1497" 
d="M109 1231v55q0 6 6 6h141q31 0 53.5 22t22.5 54v66v4q0 6 6 6h65q7 0 7 -6v-766q0 -6 -7 -6h-65q-6 0 -6 6v514q0 17 -11.5 28t-27.5 11h-178q-6 0 -6 6zM216.5 5q-2.5 5 0.5 11l868 1422q4 4 9 4h90q6 0 8.5 -5.5t-0.5 -11.5l-873 -1421q-4 -4 -8 -4h-86q-6 0 -8.5 5z
M805 193v57q0 6 2 10l328 512q3 6 8 6h78q6 0 6 -6v-512q0 -6 4 -6h131q6 0 6 -4v-57q0 -5 -6 -5h-131q-4 0 -4 -6v-176q0 -6 -6 -6h-68q-4 0 -4 6v176q0 6 -6 6h-332q-6 0 -6 5zM893.5 256q1.5 -2 3.5 -2h246q6 0 6 6v381q0 6 -4.5 7t-7.5 -5l-242 -383q-3 -2 -1.5 -4z" />
    <glyph glyph-name="onehalf" unicode="&#xbd;" horiz-adv-x="1529" 
d="M109 1229v55q0 6 6 6h141q31 0 53.5 22t22.5 54v66v4q0 6 6 6h65q7 0 7 -6v-766q0 -6 -7 -6h-65q-6 0 -6 6v514q0 17 -11.5 28t-27.5 11h-178q-6 0 -6 6zM134.5 5q-2.5 5 0.5 11l869 1422q4 4 8 4h90q6 0 8.5 -5.5t-0.5 -11.5l-872 -1421q-4 -4 -9 -4h-86q-6 0 -8.5 5z
M885 6v60q0 5 6 8l326 315q108 101 106 176q0 59 -44.5 108.5t-127.5 49.5q-69 0 -117.5 -43.5t-48.5 -114.5q0 -6 -6 -6h-66q-6 0 -6 6q0 109 70 167.5t174 58.5q115 0 182.5 -64t67.5 -162q0 -37 -11.5 -71.5t-33 -64t-38.5 -48t-42 -41.5l-279 -264q-3 -3 -1.5 -6.5
t5.5 -3.5h394q6 0 6 -5v-55q0 -6 -6 -6h-504q-6 0 -6 6z" />
    <glyph glyph-name="threequarters" unicode="&#xbe;" horiz-adv-x="1587" 
d="M109 864q0 6 6 6h65q6 0 6 -6q0 -71 44 -114t124 -43h2q84 0 135.5 40.5t51.5 108.5q0 72 -53.5 115t-133.5 43h-51q-6 0 -6 6v55q0 6 6 6h51q74 0 122 39t48 103q0 62 -48 106.5t-122 44.5q-73 0 -119.5 -40.5t-46.5 -116.5q0 -7 -4 -7h-67q-4 0 -4 7q0 112 66 168.5
t175 56.5q107 0 175.5 -62.5t68.5 -156.5q0 -39 -15.5 -72.5t-37 -52t-38.5 -29t-26 -12.5q-5 -1 -5 -6t5 -7q42 -14 88.5 -63.5t46.5 -124.5q0 -97 -73.5 -156t-188.5 -59h-2q-116 0 -180.5 60.5t-64.5 162.5zM325.5 5q-2.5 5 0.5 11l868 1422q4 4 8 4h90q6 0 8.5 -5.5
t-0.5 -11.5l-872 -1421q-4 -4 -8 -4h-86q-6 0 -8.5 5zM895 193v57q0 6 2 10l328 512q3 6 8 6h78q6 0 6 -6v-512q0 -6 4 -6h131q6 0 6 -4v-57q0 -5 -6 -5h-131q-4 0 -4 -6v-176q0 -6 -6 -6h-68q-4 0 -4 6v176q0 6 -6 6h-332q-6 0 -6 5zM983.5 256q1.5 -2 3.5 -2h246q6 0 6 6
v381q0 6 -4.5 7t-7.5 -5l-242 -383q-3 -2 -1.5 -4z" />
    <glyph glyph-name="questiondown" unicode="&#xbf;" horiz-adv-x="1036" 
d="M98 393q0 62 14 111.5t35 81.5t58.5 63t69 50l83 49.5t86.5 54.5q28 15 42 33.5t14 48.5v121q0 10 10 10h123q10 0 10 -10v-144q0 -55 -34.5 -96t-106.5 -84q-117 -69 -170 -112t-71.5 -80.5t-18.5 -96.5q0 -127 85.5 -209t245.5 -82q139 0 222.5 90t83.5 203q0 11 10 11
h123q10 0 10 -11q0 -176 -124 -295.5t-325 -119.5q-224 0 -349.5 111.5t-125.5 301.5zM461 1227v205q0 10 10 10h205q10 0 10 -10v-205q0 -10 -10 -10h-205q-10 0 -10 10z" />
    <glyph glyph-name="Agrave" unicode="&#xc0;" horiz-adv-x="1355" 
d="M82 10l471 1422q3 10 12 10h205q9 0 12 -10l471 -1422q3 -10 -8 -10h-131q-11 0 -14 10l-103 314q-3 10 -14 10h-631q-11 0 -14 -10l-102 -314q-3 -10 -15 -10h-131q-11 0 -8 10zM385 467q-3 -10 8 -10h551q9 0 6 10l-272 844q-3 7 -10.5 7t-10.5 -7zM452.5 1843
q3.5 4 10.5 4h137q16 0 21 -14l100 -234q3 -6 -0.5 -10t-9.5 -4h-88q-14 0 -23 14l-147 234q-4 6 -0.5 10z" />
    <glyph glyph-name="Aacute" unicode="&#xc1;" horiz-adv-x="1355" 
d="M82 10l471 1422q3 10 12 10h205q9 0 12 -10l471 -1422q3 -10 -8 -10h-131q-11 0 -14 10l-103 314q-3 10 -14 10h-631q-11 0 -14 -10l-102 -314q-3 -10 -15 -10h-131q-11 0 -8 10zM385 467q-3 -10 8 -10h551q9 0 6 10l-272 844q-3 7 -10.5 7t-10.5 -7zM532 1599l101 234
q5 14 20 14h138q7 0 10.5 -4t-0.5 -10l-148 -234q-9 -14 -22 -14h-88q-6 0 -10 4t-1 10z" />
    <glyph glyph-name="Acircumflex" unicode="&#xc2;" horiz-adv-x="1355" 
d="M82 10l471 1422q3 10 12 10h205q9 0 12 -10l471 -1422q3 -10 -8 -10h-131q-11 0 -14 10l-103 314q-3 10 -14 10h-631q-11 0 -14 -10l-102 -314q-3 -10 -15 -10h-131q-11 0 -8 10zM385 467q-3 -10 8 -10h551q9 0 6 10l-272 844q-3 7 -10.5 7t-10.5 -7zM471 1599l104 240
q3 8 11 8h164q7 0 10 -8l104 -240q3 -6 -0.5 -10t-9.5 -4h-96q-7 0 -10 6l-70 127q-3 6 -10.5 6t-10.5 -6l-69 -127q-3 -6 -10 -6h-97q-6 0 -9.5 4t-0.5 10z" />
    <glyph glyph-name="Atilde" unicode="&#xc3;" horiz-adv-x="1355" 
d="M82 10l471 1422q3 10 12 10h205q9 0 12 -10l471 -1422q3 -10 -8 -10h-131q-11 0 -14 10l-103 314q-3 10 -14 10h-631q-11 0 -14 -10l-102 -314q-3 -10 -15 -10h-131q-11 0 -8 10zM358 1595v27q0 29 11 58.5t32 56.5t58 44t84 17q40 0 77.5 -14.5t61.5 -32.5t54 -32.5
t57 -14.5q21 0 43 19.5t22 64.5q0 10 10 10h99q10 0 10 -10v-29q0 -63 -48 -118.5t-136 -55.5q-47 0 -95 23.5t-88 47t-67 23.5q-21 0 -43.5 -20t-22.5 -64q0 -10 -10 -10h-98q-11 0 -11 10zM385 467q-3 -10 8 -10h551q9 0 6 10l-272 844q-3 7 -10.5 7t-10.5 -7z" />
    <glyph glyph-name="Adieresis" unicode="&#xc4;" horiz-adv-x="1355" 
d="M82 10l471 1422q3 10 12 10h205q9 0 12 -10l471 -1422q3 -10 -8 -10h-131q-11 0 -14 10l-103 314q-3 10 -14 10h-631q-11 0 -14 -10l-102 -314q-3 -10 -15 -10h-131q-11 0 -8 10zM350 1595v164q0 10 10 10h164q11 0 11 -10v-164q0 -10 -11 -10h-164q-10 0 -10 10z
M385 467q-3 -10 8 -10h551q9 0 6 10l-272 844q-3 7 -10.5 7t-10.5 -7zM799 1595v164q0 10 10 10h164q10 0 10 -10v-164q0 -10 -10 -10h-164q-10 0 -10 10z" />
    <glyph glyph-name="Aring" unicode="&#xc5;" horiz-adv-x="1355" 
d="M82 10l471 1422q3 10 12 10h205q9 0 12 -10l471 -1422q3 -10 -8 -10h-131q-11 0 -14 10l-103 314q-3 10 -14 10h-631q-11 0 -14 -10l-102 -314q-3 -10 -15 -10h-131q-11 0 -8 10zM385 467q-3 -10 8 -10h551q9 0 6 10l-272 844q-3 7 -10.5 7t-10.5 -7zM492 1686
q0 74 52.5 127t125.5 53q74 0 127 -53t53 -127q0 -73 -53 -126t-127 -53q-73 0 -125.5 52.5t-52.5 126.5zM567 1686q0 -43 30 -73t73 -30q41 0 70.5 30t29.5 73q0 41 -29.5 70.5t-70.5 29.5q-43 0 -73 -29.5t-30 -70.5z" />
    <glyph glyph-name="AE" unicode="&#xc6;" horiz-adv-x="2013" 
d="M49 10l799 1422q3 10 12 10h1055q10 0 10 -10v-103q0 -10 -10 -10h-819q-11 0 -11 -10v-504q0 -10 11 -10h731q10 0 10 -11v-102q0 -10 -10 -10h-731q-11 0 -11 -10v-529q0 -10 11 -10h819q10 0 10 -10v-103q0 -10 -10 -10h-963q-10 0 -10 10v314q0 10 -10 10h-539
q-11 0 -14 -10l-10 -19l-166 -295q-3 -10 -15 -10h-131q-11 0 -8 10zM459 467q-3 -10 8 -10h467q8 0 8 10v840q0 6 -4.5 6t-7.5 -6z" />
    <glyph glyph-name="Ccedilla" unicode="&#xc7;" horiz-adv-x="1265" 
d="M29 721q0 163 43.5 299t124.5 234t203 153t272 55q108 0 203 -33t158 -82t109 -107t67.5 -108t23.5 -85q0 -11 -10 -11h-121q-11 0 -15 11q-10 30 -28.5 64t-54.5 76t-80 74.5t-110.5 55t-141.5 22.5q-238 0 -366 -162t-128 -456t128 -456.5t366 -162.5q75 0 141.5 22.5
t110.5 55.5t80 75t54.5 76t28.5 64q4 11 15 11h121q10 0 10 -11q-2 -31 -19 -73.5t-53 -93.5t-85 -97t-122.5 -84.5t-156.5 -54.5l-119 -84q-5 -3 -3 -10t9 -7q62 0 112 -38t50 -113q0 -67 -55 -116.5t-150 -49.5q-87 0 -134.5 49.5t-47.5 116.5q0 10 10 10h68q10 0 10 -10
q0 -34 27 -61t67 -27q47 0 74.5 26.5t27.5 61.5q0 53 -35 76.5t-77 23.5q-27 0 -33 6l-16 17q-13 13 -2 24l92 74q6 5 3.5 12t-9.5 7h-7q-195 0 -339 96t-217.5 262.5t-73.5 382.5z" />
    <glyph glyph-name="Egrave" unicode="&#xc8;" horiz-adv-x="1243" 
d="M158 10v1422q0 10 10 10h962q11 0 11 -10v-103q0 -10 -11 -10h-819q-10 0 -10 -10v-496q0 -10 10 -10h731q11 0 11 -10v-103q0 -10 -11 -10h-731q-10 0 -10 -10v-537q0 -10 10 -10h819q11 0 11 -10v-103q0 -10 -11 -10h-962q-10 0 -10 10zM476.5 1843q3.5 4 10.5 4h138
q15 0 20 -14l100 -234q3 -6 -0.5 -10t-9.5 -4h-88q-13 0 -22 14l-148 234q-4 6 -0.5 10z" />
    <glyph glyph-name="Eacute" unicode="&#xc9;" horiz-adv-x="1243" 
d="M158 10v1422q0 10 10 10h962q11 0 11 -10v-103q0 -10 -11 -10h-819q-10 0 -10 -10v-496q0 -10 10 -10h731q11 0 11 -10v-103q0 -10 -11 -10h-731q-10 0 -10 -10v-537q0 -10 10 -10h819q11 0 11 -10v-103q0 -10 -11 -10h-962q-10 0 -10 10zM475 1599l100 234q5 14 21 14
h137q7 0 10.5 -4t-0.5 -10l-147 -234q-9 -14 -23 -14h-88q-6 0 -9.5 4t-0.5 10z" />
    <glyph glyph-name="Ecircumflex" unicode="&#xca;" horiz-adv-x="1243" 
d="M158 10v1422q0 10 10 10h962q11 0 11 -10v-103q0 -10 -11 -10h-819q-10 0 -10 -10v-496q0 -10 10 -10h731q11 0 11 -10v-103q0 -10 -11 -10h-731q-10 0 -10 -10v-537q0 -10 10 -10h819q11 0 11 -10v-103q0 -10 -11 -10h-962q-10 0 -10 10zM414 1599l104 240q3 8 10 8h164
q7 0 10 -8l105 -240q3 -6 -0.5 -10t-9.5 -4h-97q-7 0 -10 6l-69 127q-3 6 -10.5 6t-10.5 -6l-70 -127q-3 -6 -10 -6h-96q-6 0 -9.5 4t-0.5 10z" />
    <glyph glyph-name="Edieresis" unicode="&#xcb;" horiz-adv-x="1243" 
d="M158 10v1422q0 10 10 10h962q11 0 11 -10v-103q0 -10 -11 -10h-819q-10 0 -10 -10v-496q0 -10 10 -10h731q11 0 11 -10v-103q0 -10 -11 -10h-731q-10 0 -10 -10v-537q0 -10 10 -10h819q11 0 11 -10v-103q0 -10 -11 -10h-962q-10 0 -10 10zM336 1595v164q0 10 10 10h164
q10 0 10 -10v-164q0 -10 -10 -10h-164q-10 0 -10 10zM784 1595v164q0 10 11 10h163q11 0 11 -10v-164q0 -10 -11 -10h-163q-11 0 -11 10z" />
    <glyph glyph-name="Igrave" unicode="&#xcc;" 
d="M18 1833q-4 6 0 10t11 4h137q15 0 20 -14l101 -234q3 -6 -1 -10t-10 -4h-88q-13 0 -22 14zM150 10v1422q0 10 10 10h123q10 0 10 -10v-1422q0 -10 -10 -10h-123q-10 0 -10 10z" />
    <glyph glyph-name="Iacute" unicode="&#xcd;" 
d="M150 10v1422q0 10 10 10h123q10 0 10 -10v-1422q0 -10 -10 -10h-123q-10 0 -10 10zM168 1599l100 234q5 14 21 14h137q7 0 10.5 -4t-0.5 -10l-147 -234q-9 -14 -23 -14h-88q-6 0 -9.5 4t-0.5 10z" />
    <glyph glyph-name="Icircumflex" unicode="&#xce;" 
d="M25 1599l104 240q3 8 10 8h164q7 0 10 -8l105 -240q3 -6 -0.5 -10t-9.5 -4h-97q-7 0 -10 6l-70 127q-3 6 -10 6t-10 -6l-70 -127q-3 -6 -10 -6h-96q-6 0 -9.5 4t-0.5 10zM150 10v1422q0 10 10 10h123q10 0 10 -10v-1422q0 -10 -10 -10h-123q-10 0 -10 10z" />
    <glyph glyph-name="Idieresis" unicode="&#xcf;" 
d="M-94 1595v164q0 10 10 10h164q10 0 10 -10v-164q0 -10 -10 -10h-164q-10 0 -10 10zM150 10v1422q0 10 10 10h123q10 0 10 -10v-1422q0 -10 -10 -10h-123q-10 0 -10 10zM354 1595v164q0 10 11 10h163q11 0 11 -10v-164q0 -10 -11 -10h-163q-11 0 -11 10z" />
    <glyph glyph-name="Eth" unicode="&#xd0;" horiz-adv-x="1398" 
d="M0 672v123q0 10 10 10h133q11 0 11 10v617q0 10 10 10h520q157 -1 279.5 -55t200 -152t117.5 -231.5t40 -296.5q0 -333 -161.5 -520t-475.5 -187h-520q-10 0 -10 10v641q0 11 -11 11h-133q-10 0 -10 10zM297 133q0 -10 10 -10h377q231 0 357 149t126 435q0 284 -128 448
t-355 164h-377q-10 0 -10 -10v-494q0 -10 10 -10h369q10 0 10 -10v-123q0 -10 -10 -10h-369q-10 0 -10 -11v-518z" />
    <glyph glyph-name="Ntilde" unicode="&#xd1;" horiz-adv-x="1402" 
d="M150 10v1422q0 10 10 10h235q8 0 11 -10l663 -1303q5 -7 13 -5.5t8 7.5v1301q0 10 10 10h123q10 0 10 -10v-1422q0 -10 -10 -10h-230q-9 0 -14 10l-666 1301q-6 11 -13 8t-7 -10v-1299q0 -10 -10 -10h-123q-10 0 -10 10z" />
    <glyph glyph-name="Ograve" unicode="&#xd2;" horiz-adv-x="1482" 
d="M86 721q0 220 71 385t218 260.5t356 95.5t356 -95.5t218 -260.5t71 -385t-71 -385t-218 -260.5t-356 -95.5t-356 95.5t-218 260.5t-71 385zM240 721q0 -295 126 -457t365 -162t365.5 162t126.5 457t-126.5 456.5t-365.5 161.5t-365 -161.5t-126 -456.5zM536.5 1843
q3.5 4 10.5 4h137q16 0 21 -14l100 -234q3 -6 -0.5 -10t-9.5 -4h-88q-14 0 -23 14l-147 234q-4 6 -0.5 10z" />
    <glyph glyph-name="Oacute" unicode="&#xd3;" horiz-adv-x="1482" 
d="M86 721q0 220 71 385t218 260.5t356 95.5t356 -95.5t218 -260.5t71 -385t-71 -385t-218 -260.5t-356 -95.5t-356 95.5t-218 260.5t-71 385zM240 721q0 -295 126 -457t365 -162t365.5 162t126.5 457t-126.5 456.5t-365.5 161.5t-365 -161.5t-126 -456.5zM637 1599l100 234
q5 14 21 14h137q7 0 10.5 -4t-0.5 -10l-147 -234q-9 -14 -23 -14h-88q-6 0 -9.5 4t-0.5 10z" />
    <glyph glyph-name="Ocircumflex" unicode="&#xd4;" horiz-adv-x="1482" 
d="M86 721q0 220 71 385t218 260.5t356 95.5t356 -95.5t218 -260.5t71 -385t-71 -385t-218 -260.5t-356 -95.5t-356 95.5t-218 260.5t-71 385zM240 721q0 -295 126 -457t365 -162t365.5 162t126.5 457t-126.5 456.5t-365.5 161.5t-365 -161.5t-126 -456.5zM535 1599l104 240
q3 8 10 8h164q7 0 10 -8l105 -240q3 -6 -0.5 -10t-9.5 -4h-97q-7 0 -10 6l-70 127q-3 6 -10 6t-10 -6l-70 -127q-3 -6 -10 -6h-96q-6 0 -9.5 4t-0.5 10z" />
    <glyph glyph-name="Otilde" unicode="&#xd5;" horiz-adv-x="1482" 
d="M86 721q0 220 71 385t218 260.5t356 95.5t356 -95.5t218 -260.5t71 -385t-71 -385t-218 -260.5t-356 -95.5t-356 95.5t-218 260.5t-71 385zM240 721q0 -295 126 -457t365 -162t365.5 162t126.5 457t-126.5 456.5t-365.5 161.5t-365 -161.5t-126 -456.5zM422 1595v27
q0 64 47.5 120t136.5 56q40 0 77.5 -14.5t61.5 -32.5t54 -32.5t57 -14.5q21 0 43.5 20t22.5 64q0 10 10 10h98q10 0 10 -10v-29q0 -63 -48 -118.5t-136 -55.5q-47 0 -95 23.5t-88 47t-67 23.5q-21 0 -43 -19.5t-22 -64.5q0 -10 -11 -10h-98q-10 0 -10 10z" />
    <glyph glyph-name="Odieresis" unicode="&#xd6;" horiz-adv-x="1482" 
d="M86 721q0 220 71 385t218 260.5t356 95.5t356 -95.5t218 -260.5t71 -385t-71 -385t-218 -260.5t-356 -95.5t-356 95.5t-218 260.5t-71 385zM240 721q0 -295 126 -457t365 -162t365.5 162t126.5 457t-126.5 456.5t-365.5 161.5t-365 -161.5t-126 -456.5zM418 1595v164
q0 10 10 10h164q10 0 10 -10v-164q0 -10 -10 -10h-164q-10 0 -10 10zM866 1595v164q0 10 11 10h163q11 0 11 -10v-164q0 -10 -11 -10h-163q-11 0 -11 10z" />
    <glyph glyph-name="multiply" unicode="&#xd7;" horiz-adv-x="925" 
d="M-57 100q-7 8 0 15l395 397q5 8 0 16l-395 392q-7 7 0 14l88 90q8 5 16 0l393 -393q8 -7 15 0l401 401q7 7 14 0l97 -96q7 -7 0 -14l-402 -402q-7 -7 0 -14l402 -400q7 -7 0 -14l-90 -90q-7 -8 -15 0l-401 401q-6 6 -15 0l-395 -399q-7 -7 -14 0z" />
    <glyph glyph-name="Oslash" unicode="&#xd8;" horiz-adv-x="1482" 
d="M74 160q-7 7 0 14l102 102q6 6 2 15q-92 182 -92 430q0 220 71 385t218 260.5t356 95.5q279 0 445 -166q10 -10 20 0l74 74q7 7 14 0l80 -80q7 -7 0 -14l-92 -90q-7 -7 0 -17q104 -178 104 -448q0 -220 -70 -384t-216 -258.5t-355 -94.5l-4 -4q-295 0 -467 188
q-10 10 -20 0l-82 -82q-8 -8 -15 0zM240 721q0 -186 47 -311q7 -15 18 -4l774 774q8 8 0 16q-128 143 -348 143q-239 0 -365 -161.5t-126 -456.5zM360 270q124 -168 371 -168l4 4q239 0 363.5 160t124.5 455q0 222 -58 338q-7 13 -18 2l-787 -776q-8 -7 0 -15z" />
    <glyph glyph-name="Ugrave" unicode="&#xd9;" horiz-adv-x="1261" 
d="M131 479v953q0 10 10 10h123q10 0 10 -10v-953q0 -151 107 -264t256 -113q147 0 251.5 113t104.5 264v953q0 10 11 10h122q11 0 11 -10v-953q0 -138 -66 -253t-181 -180.5t-253 -65.5q-211 0 -358.5 144.5t-147.5 354.5zM487 1833q-4 6 0 10t11 4h137q15 0 20 -14
l101 -234q3 -6 -1 -10t-10 -4h-88q-13 0 -22 14z" />
    <glyph glyph-name="Uacute" unicode="&#xda;" horiz-adv-x="1261" 
d="M131 479v953q0 10 10 10h123q10 0 10 -10v-953q0 -151 107 -264t256 -113q147 0 251.5 113t104.5 264v953q0 10 11 10h122q11 0 11 -10v-953q0 -138 -66 -253t-181 -180.5t-253 -65.5q-211 0 -358.5 144.5t-147.5 354.5zM485 1599l101 234q5 14 20 14h137q7 0 11 -4
t0 -10l-148 -234q-9 -14 -22 -14h-88q-6 0 -10 4t-1 10z" />
    <glyph glyph-name="Ucircumflex" unicode="&#xdb;" horiz-adv-x="1261" 
d="M131 479v953q0 10 10 10h123q10 0 10 -10v-953q0 -151 107 -264t256 -113q147 0 251.5 113t104.5 264v953q0 10 11 10h122q11 0 11 -10v-953q0 -138 -66 -253t-181 -180.5t-253 -65.5q-211 0 -358.5 144.5t-147.5 354.5zM424 1599l104 240q3 8 11 8h163q8 0 11 -8
l104 -240q3 -6 -0.5 -10t-9.5 -4h-96q-8 0 -11 6l-69 127q-3 6 -10.5 6t-10.5 -6l-69 -127q-3 -6 -11 -6h-96q-6 0 -9.5 4t-0.5 10z" />
    <glyph glyph-name="Udieresis" unicode="&#xdc;" horiz-adv-x="1261" 
d="M131 479v953q0 10 10 10h123q10 0 10 -10v-953q0 -151 107 -264t256 -113q147 0 251.5 113t104.5 264v953q0 10 11 10h122q11 0 11 -10v-953q0 -138 -66 -253t-181 -180.5t-253 -65.5q-211 0 -358.5 144.5t-147.5 354.5zM324 1595v164q0 10 10 10h164q10 0 10 -10v-164
q0 -10 -10 -10h-164q-10 0 -10 10zM772 1595v164q0 10 10 10h164q10 0 10 -10v-164q0 -10 -10 -10h-164q-10 0 -10 10z" />
    <glyph glyph-name="Yacute" unicode="&#xdd;" horiz-adv-x="1339" 
d="M131.5 1438.5q1.5 3.5 5.5 3.5h139q12 0 19 -10l387 -633q3 -5 8 -5t8 5l392 633q7 10 16 10h141q9 0 4 -10l-479 -773q-8 -14 -8 -32v-617q0 -10 -10 -10h-123q-10 0 -10 10v617q0 19 -9 32l-479 773q-3 3 -1.5 6.5zM606 1599l101 234q5 14 20 14h137q7 0 10.5 -4
t-0.5 -10l-147 -234q-9 -14 -22 -14h-89q-6 0 -9.5 4t-0.5 10z" />
    <glyph glyph-name="Thorn" unicode="&#xde;" horiz-adv-x="1253" 
d="M150 10v1422q0 10 10 10h123q10 0 10 -10v-304q0 -10 10 -10h520q161 0 272 -117t111 -280q0 -164 -111 -280.5t-272 -116.5h-520q-10 0 -10 -11v-303q0 -10 -10 -10h-123q-10 0 -10 10zM293 457q0 -11 10 -11h520q97 0 168.5 83.5t71.5 191.5t-71.5 191t-168.5 83h-520
q-10 0 -10 -10v-528z" />
    <glyph glyph-name="germandbls" unicode="&#xdf;" horiz-adv-x="1132" 
d="M143 10v1026q0 105 33.5 188t91 134t129 77.5t150.5 26.5q120 0 212 -30.5t147.5 -83.5t83.5 -120.5t28 -146.5q0 -65 -23.5 -127t-74.5 -116t-121 -80q-9 -3 -9.5 -12t9.5 -11q40 -8 82 -30t85.5 -60.5t71 -102.5t27.5 -143q0 -203 -122 -311t-368 -108h-79
q-11 0 -11 10v102q0 10 11 10h79q347 0 347 297q0 70 -30.5 127t-79.5 91t-103.5 51.5t-108.5 17.5h-47q-10 0 -10 10v103q0 10 10 10h47q55 0 104.5 14.5t92.5 45t68.5 85t25.5 127.5q0 119 -94 190.5t-250 71.5q-87 0 -147.5 -46t-86.5 -113.5t-26 -147.5v-1026
q0 -10 -11 -10h-122q-11 0 -11 10z" />
    <glyph glyph-name="agrave" unicode="&#xe0;" horiz-adv-x="1245" 
d="M92 295q0 144 112 225.5t326 81.5h256q25 0 36.5 0.5t27.5 5t22.5 13t11.5 25.5t5 42q0 38 -4.5 67t-23 64.5t-50.5 59t-92.5 39.5t-143.5 16q-299 0 -299 -248q0 -10 -10 -10h-123q-10 0 -10 10q0 121 60 206.5t158 125t224 39.5q215 0 336 -94t121 -275v-428
q0 -79 24 -108t89 -29h22q11 0 11 -10v-103q0 -10 -11 -10h-22q-103 0 -155 29t-79 94q-6 16 -18 4l-28 -28t-46 -34.5t-74 -40.5t-99.5 -28t-135.5 -16q-198 0 -308 86t-110 229zM236 295q0 -79 68.5 -136t205.5 -57q96 0 171 29t118.5 77t65.5 101.5t24 110.5v49
q0 10 -10 10h-340q-93 0 -156 -15.5t-93.5 -43.5t-42 -57.5t-11.5 -67.5zM376.5 1437.5q3.5 4.5 10.5 4.5h137q16 0 21 -15l100 -233q3 -6 -0.5 -10t-9.5 -4h-88q-14 0 -23 14l-147 233q-4 6 -0.5 10.5z" />
    <glyph glyph-name="aacute" unicode="&#xe1;" horiz-adv-x="1245" 
d="M92 295q0 144 112 225.5t326 81.5h256q25 0 36.5 0.5t27.5 5t22.5 13t11.5 25.5t5 42q0 38 -4.5 67t-23 64.5t-50.5 59t-92.5 39.5t-143.5 16q-299 0 -299 -248q0 -10 -10 -10h-123q-10 0 -10 10q0 121 60 206.5t158 125t224 39.5q215 0 336 -94t121 -275v-428
q0 -79 24 -108t89 -29h22q11 0 11 -10v-103q0 -10 -11 -10h-22q-103 0 -155 29t-79 94q-6 16 -18 4l-28 -28t-46 -34.5t-74 -40.5t-99.5 -28t-135.5 -16q-198 0 -308 86t-110 229zM236 295q0 -79 68.5 -136t205.5 -57q96 0 171 29t118.5 77t65.5 101.5t24 110.5v49
q0 10 -10 10h-340q-93 0 -156 -15.5t-93.5 -43.5t-42 -57.5t-11.5 -67.5zM498 1194l100 233q5 15 20 15h138q7 0 10.5 -4.5t-0.5 -10.5l-148 -233q-9 -14 -22 -14h-88q-6 0 -9.5 4t-0.5 10z" />
    <glyph glyph-name="acircumflex" unicode="&#xe2;" horiz-adv-x="1220" 
d="M68 295q0 144 112 225.5t326 81.5h256q25 0 36.5 0.5t27 5t22 13t11.5 25.5t5 42q0 38 -4.5 67t-23 65t-50.5 59t-92 39t-143 16q-299 0 -299 -248q0 -10 -10 -10h-123q-10 0 -10 10q0 121 60 206.5t158 125t224 39.5q215 0 336 -94t121 -275v-428q0 -79 23.5 -108
t88.5 -29h23q10 0 10 -10v-103q0 -10 -10 -10h-23q-103 0 -154.5 29t-78.5 94q-7 16 -19 4l-28 -28t-46 -34.5t-74 -40.5t-99.5 -28t-135.5 -16q-198 0 -307.5 86t-109.5 229zM211 295q0 -79 68.5 -136t205.5 -57q96 0 171 29t118.5 77t65.5 101.5t24 110.5v49q0 10 -10 10
h-340q-93 0 -156 -15.5t-93.5 -43.5t-42 -57.5t-11.5 -67.5zM360 1194l105 240q3 8 10 8h164q7 0 10 -8l105 -240q3 -6 -1 -10t-10 -4h-96q-7 0 -10 6l-70 127q-3 6 -10 6t-10 -6l-70 -127q-3 -6 -10 -6h-96q-6 0 -10 4t-1 10z" />
    <glyph glyph-name="atilde" unicode="&#xe3;" horiz-adv-x="1220" 
d="M68 295q0 144 112 225.5t326 81.5h256q25 0 36.5 0.5t27 5t22 13t11.5 25.5t5 42q0 38 -4.5 67t-23 65t-50.5 59t-92 39t-143 16q-299 0 -299 -248q0 -10 -10 -10h-123q-10 0 -10 10q0 121 60 206.5t158 125t224 39.5q215 0 336 -94t121 -275v-428q0 -79 23.5 -108
t88.5 -29h23q10 0 10 -10v-103q0 -10 -10 -10h-23q-103 0 -154.5 29t-78.5 94q-7 16 -19 4l-28 -28t-46 -34.5t-74 -40.5t-99.5 -28t-135.5 -16q-198 0 -307.5 86t-109.5 229zM211 295q0 -79 68.5 -136t205.5 -57q96 0 171 29t118.5 77t65.5 101.5t24 110.5v49q0 10 -10 10
h-340q-93 0 -156 -15.5t-93.5 -43.5t-42 -57.5t-11.5 -67.5zM248 1239v27q0 64 47.5 120t136.5 56q40 0 77.5 -14.5t61.5 -32.5t54 -32.5t57 -14.5q21 0 43.5 20t22.5 64q0 10 10 10h98q10 0 10 -10v-29q0 -63 -48 -118.5t-136 -55.5q-47 0 -95 23.5t-88 47t-67 23.5
q-21 0 -43 -19.5t-22 -64.5q0 -10 -11 -10h-98q-10 0 -10 10z" />
    <glyph glyph-name="adieresis" unicode="&#xe4;" horiz-adv-x="1245" 
d="M92 295q0 144 112 225.5t326 81.5h256q25 0 36.5 0.5t27.5 5t22.5 13t11.5 25.5t5 42q0 38 -4.5 67t-23 64.5t-50.5 59t-92.5 39.5t-143.5 16q-299 0 -299 -248q0 -10 -10 -10h-123q-10 0 -10 10q0 121 60 206.5t158 125t224 39.5q215 0 336 -94t121 -275v-428
q0 -79 24 -108t89 -29h22q11 0 11 -10v-103q0 -10 -11 -10h-22q-103 0 -155 29t-79 94q-6 16 -18 4l-28 -28t-46 -34.5t-74 -40.5t-99.5 -28t-135.5 -16q-198 0 -308 86t-110 229zM236 295q0 -79 68.5 -136t205.5 -57q96 0 171 29t118.5 77t65.5 101.5t24 110.5v49
q0 10 -10 10h-340q-93 0 -156 -15.5t-93.5 -43.5t-42 -57.5t-11.5 -67.5zM260 1268v164q0 10 10 10h164q10 0 10 -10v-164q0 -11 -10 -11h-164q-10 0 -10 11zM709 1268v164q0 10 10 10h164q10 0 10 -10v-164q0 -11 -10 -11h-164q-10 0 -10 11z" />
    <glyph glyph-name="aring" unicode="&#xe5;" horiz-adv-x="1245" 
d="M92 295q0 144 112 225.5t326 81.5h256q25 0 36.5 0.5t27.5 5t22.5 13t11.5 25.5t5 42q0 38 -4.5 67t-23 64.5t-50.5 59t-92.5 39.5t-143.5 16q-299 0 -299 -248q0 -10 -10 -10h-123q-10 0 -10 10q0 121 60 206.5t158 125t224 39.5q215 0 336 -94t121 -275v-428
q0 -79 24 -108t89 -29h22q11 0 11 -10v-103q0 -10 -11 -10h-22q-103 0 -155 29t-79 94q-6 16 -18 4l-28 -28t-46 -34.5t-74 -40.5t-99.5 -28t-135.5 -16q-198 0 -308 86t-110 229zM236 295q0 -79 68.5 -136t205.5 -57q96 0 171 29t118.5 77t65.5 101.5t24 110.5v49
q0 10 -10 10h-340q-93 0 -156 -15.5t-93.5 -43.5t-42 -57.5t-11.5 -67.5zM397 1284q0 74 52.5 127t125.5 53q74 0 127.5 -53.5t53.5 -126.5t-53.5 -125.5t-127.5 -52.5q-73 0 -125.5 52t-52.5 126zM473 1284q0 -43 29.5 -72.5t72.5 -29.5q41 0 71 30t30 72q0 41 -30 70.5
t-71 29.5q-43 0 -72.5 -29.5t-29.5 -70.5z" />
    <glyph glyph-name="ae" unicode="&#xe6;" horiz-adv-x="1970" 
d="M88 295q0 144 112 225.5t326 81.5h256q25 0 36.5 0.5t27.5 5t22.5 13t11.5 25.5t5 42q0 38 -4.5 67t-23 64.5t-50.5 59t-92.5 39.5t-143.5 16q-151 0 -225 -61.5t-74 -176.5q0 -10 -10 -10h-123q-10 0 -10 10q0 172 124.5 266.5t317.5 94.5q290 0 400 -162q10 -14 22 -2
q166 166 377 166q229 0 360.5 -143t131.5 -384q0 -31 -4 -43q-3 -10 -13 -10h-807q-10 0 -10 -10q0 -54 14.5 -106.5t44 -99.5t70 -83t95.5 -57t118 -21q114 0 188.5 46.5t108.5 113.5q5 10 16 10h132q3 0 6 -1t5 -3t1 -6q-45 -137 -166.5 -209.5t-290.5 -72.5
q-259 0 -403 200q-11 14 -21 0q-29 -40 -76 -78q-18 -16 -44 -32.5t-70.5 -38t-109.5 -35.5t-140 -16q-198 0 -308 86t-110 229zM231 295q0 -79 69 -136t206 -57q96 0 171 29t118.5 77t65.5 101.5t24 110.5v49q0 10 -11 10h-339q-93 0 -156.5 -15.5t-94 -43.5t-42 -57.5
t-11.5 -67.5zM1028 612q0 -10 10 -10h658q10 0 10 10q0 58 -19.5 113t-58 103.5t-105.5 78t-153 29.5q-83 0 -151 -33t-108 -83.5t-61.5 -104.5t-21.5 -103z" />
    <glyph glyph-name="ccedilla" unicode="&#xe7;" horiz-adv-x="1089" 
d="M86 518q0 245 135 392t373 147q91 0 168 -25t127.5 -64t87.5 -90t55.5 -98.5t24.5 -93.5q0 -10 -10 -10h-121q-10 0 -13 10q-31 119 -112 183.5t-207 64.5q-168 0 -266.5 -114.5t-98.5 -301.5t98.5 -301.5t266.5 -114.5q126 0 207 64.5t112 183.5q3 10 13 10h121
q10 0 10 -10q-7 -54 -31.5 -108.5t-67.5 -109t-115.5 -94.5t-164.5 -52l-109 -78q-5 -3 -3 -10t9 -7q62 0 112 -38t50 -113q0 -67 -55 -116.5t-150 -49.5q-87 0 -134.5 49.5t-47.5 116.5q0 10 10 10h68q10 0 10 -10q0 -34 27 -61t67 -27q47 0 75 26.5t28 61.5q0 36 -19.5 60
t-43.5 32t-50 8q-27 0 -33 6l-16 17q-13 13 -2 24l92 74q6 5 3.5 12t-9.5 7h-8q-214 0 -338.5 151.5t-124.5 386.5z" />
    <glyph glyph-name="egrave" unicode="&#xe8;" horiz-adv-x="1165" 
d="M88 518q0 244 135 392.5t363 148.5q227 0 359 -149t132 -392q0 -31 -4 -43q-3 -10 -12 -10h-807q-10 0 -10 -10q0 -67 23.5 -130t66.5 -113t108.5 -80t143.5 -30q114 0 188.5 46.5t108.5 113.5q5 10 16 10h131q3 0 6 -1t5 -3t1 -6q-45 -137 -166 -209.5t-290 -72.5
q-222 0 -360 149t-138 389zM244 598q0 -10 10 -10h657q11 0 11 10q0 58 -19.5 115.5t-58 108.5t-105.5 82.5t-153 31.5q-83 0 -151 -35t-108 -88.5t-61.5 -109.5t-21.5 -105zM392.5 1437.5q3.5 4.5 10.5 4.5h138q15 0 20 -15l101 -233q3 -6 -1 -10t-10 -4h-88q-13 0 -22 14
l-148 233q-4 6 -0.5 10.5z" />
    <glyph glyph-name="eacute" unicode="&#xe9;" horiz-adv-x="1165" 
d="M88 518q0 244 135 392.5t363 148.5q227 0 359 -149t132 -392q0 -31 -4 -43q-3 -10 -12 -10h-807q-10 0 -10 -10q0 -67 23.5 -130t66.5 -113t108.5 -80t143.5 -30q114 0 188.5 46.5t108.5 113.5q5 10 16 10h131q3 0 6 -1t5 -3t1 -6q-45 -137 -166 -209.5t-290 -72.5
q-222 0 -360 149t-138 389zM244 598q0 -10 10 -10h657q11 0 11 10q0 58 -19.5 115.5t-58 108.5t-105.5 82.5t-153 31.5q-83 0 -151 -35t-108 -88.5t-61.5 -109.5t-21.5 -105zM494 1194l100 233q5 15 20 15h138q7 0 10.5 -4.5t-0.5 -10.5l-148 -233q-9 -14 -22 -14h-88
q-6 0 -9.5 4t-0.5 10z" />
    <glyph glyph-name="ecircumflex" unicode="&#xea;" horiz-adv-x="1165" 
d="M88 518q0 244 135 392.5t363 148.5q227 0 359 -149t132 -392q0 -31 -4 -43q-3 -10 -12 -10h-807q-10 0 -10 -10q0 -67 23.5 -130t66.5 -113t108.5 -80t143.5 -30q114 0 188.5 46.5t108.5 113.5q5 10 16 10h131q3 0 6 -1t5 -3t1 -6q-45 -137 -166 -209.5t-290 -72.5
q-222 0 -360 149t-138 389zM244 598q0 -10 10 -10h657q11 0 11 10q0 58 -19.5 115.5t-58 108.5t-105.5 82.5t-153 31.5q-83 0 -151 -35t-108 -88.5t-61.5 -109.5t-21.5 -105zM395 1194l105 240q3 8 10 8h164q7 0 10 -8l104 -240q3 -6 -0.5 -10t-9.5 -4h-96q-7 0 -10 6
l-70 127q-3 6 -10 6t-10 -6l-70 -127q-3 -6 -10 -6h-96q-6 0 -10 4t-1 10z" />
    <glyph glyph-name="edieresis" unicode="&#xeb;" horiz-adv-x="1165" 
d="M88 518q0 244 135 392.5t363 148.5q227 0 359 -149t132 -392q0 -31 -4 -43q-3 -10 -12 -10h-807q-10 0 -10 -10q0 -67 23.5 -130t66.5 -113t108.5 -80t143.5 -30q114 0 188.5 46.5t108.5 113.5q5 10 16 10h131q3 0 6 -1t5 -3t1 -6q-45 -137 -166 -209.5t-290 -72.5
q-222 0 -360 149t-138 389zM244 598q0 -10 10 -10h657q11 0 11 10q0 58 -19.5 115.5t-58 108.5t-105.5 82.5t-153 31.5q-83 0 -151 -35t-108 -88.5t-61.5 -109.5t-21.5 -105zM276 1268v164q0 10 11 10h164q10 0 10 -10v-164q0 -11 -10 -11h-164q-11 0 -11 11zM725 1268v164
q0 10 10 10h164q10 0 10 -10v-164q0 -11 -10 -11h-164q-10 0 -10 11z" />
    <glyph glyph-name="igrave" unicode="&#xec;" horiz-adv-x="503" 
d="M42.5 1437.5q3.5 4.5 10.5 4.5h137q16 0 21 -15l100 -233q3 -6 -0.5 -10t-9.5 -4h-88q-14 0 -23 14l-147 233q-4 6 -0.5 10.5zM170 10v1016q0 10 10 10h123q10 0 10 -10v-1016q0 -10 -10 -10h-123q-10 0 -10 10z" />
    <glyph glyph-name="iacute" unicode="&#xed;" horiz-adv-x="503" 
d="M170 10v1016q0 10 10 10h123q10 0 10 -10v-1016q0 -10 -10 -10h-123q-10 0 -10 10zM174 1194l100 233q5 15 21 15h137q7 0 10.5 -4.5t-0.5 -10.5l-147 -233q-9 -14 -23 -14h-88q-6 0 -9.5 4t-0.5 10z" />
    <glyph glyph-name="icircumflex" unicode="&#xee;" horiz-adv-x="503" 
d="M45 1194l105 240q3 8 10 8h164q7 0 10 -8l104 -240q3 -6 -0.5 -10t-9.5 -4h-96q-7 0 -10 6l-70 127q-3 6 -10.5 6t-10.5 -6l-69 -127q-3 -6 -10 -6h-97q-6 0 -9.5 4t-0.5 10zM170 10v1016q0 10 10 10h123q10 0 10 -10v-1016q0 -10 -10 -10h-123q-10 0 -10 10z" />
    <glyph glyph-name="idieresis" unicode="&#xef;" horiz-adv-x="503" 
d="M-74 1268v164q0 10 11 10h163q11 0 11 -10v-164q0 -11 -11 -11h-163q-11 0 -11 11zM170 10v1016q0 10 10 10h123q10 0 10 -10v-1016q0 -10 -10 -10h-123q-10 0 -10 10zM375 1268v164q0 10 10 10h164q10 0 10 -10v-164q0 -11 -10 -11h-164q-10 0 -10 11z" />
    <glyph glyph-name="eth" unicode="&#xf0;" horiz-adv-x="1193" 
d="M76 487q0 226 137 370t346 144q107 0 195 -40q5 -3 8.5 -1.5t4 4.5t-0.5 5l-92 174q-6 15 -15 10l-161 -86q-3 -3 -10.5 -1.5t-10.5 5.5l-43 82q-6 10 0 16l166 88q10 5 4 17l-84 156q-6 12 8 12h127q12 0 17 -10l51 -97q6 -9 16 -4l160 86q8 8 16 -4l46 -84q5 -8 -3 -16
l-161 -86q-16 -4 -9 -15l226 -424q78 -146 78 -301q0 -226 -135.5 -366.5t-370.5 -140.5q-237 0 -373.5 140.5t-136.5 366.5zM219 487q0 -180 94.5 -282.5t272.5 -102.5q177 0 269.5 102t92.5 283t-93 286.5t-269 105.5q-178 0 -272.5 -105.5t-94.5 -286.5z" />
    <glyph glyph-name="ntilde" unicode="&#xf1;" horiz-adv-x="1204" 
d="M150 10v1016q0 10 10 10h100q10 0 12 -10l21 -113q1 -9 8.5 -9.5t11.5 5.5q14 19 38 40.5t64 47.5t97.5 43t120.5 17q115 -1 200.5 -36t138 -101.5t78 -156.5t25.5 -206v-547q0 -10 -10 -10h-123q-10 0 -10 10v547q0 79 -17 144t-53 118.5t-100 83.5t-150 31
q-168 0 -243.5 -94t-75.5 -283v-547q0 -10 -10 -10h-123q-10 0 -10 10zM283 1239v27q0 64 47.5 120t136.5 56q40 0 77.5 -14.5t61.5 -32.5t54 -32.5t57 -14.5q21 0 43 19.5t22 64.5q0 10 11 10h98q10 0 10 -10v-29q0 -63 -48 -118.5t-136 -55.5q-47 0 -95 23.5t-88 47
t-67 23.5q-21 0 -43.5 -20t-22.5 -64q0 -10 -10 -10h-98q-10 0 -10 10z" />
    <glyph glyph-name="ograve" unicode="&#xf2;" horiz-adv-x="1171" 
d="M68 518q0 245 134.5 392t372.5 147q236 0 372 -148t136 -391t-136 -390.5t-372 -147.5q-238 0 -372.5 147.5t-134.5 390.5zM211 518q0 -187 98 -301.5t266 -114.5t266.5 114.5t98.5 301.5t-98.5 301.5t-266.5 114.5t-266 -114.5t-98 -301.5zM380.5 1437.5
q3.5 4.5 10.5 4.5h137q16 0 21 -15l100 -233q3 -6 -0.5 -10t-9.5 -4h-88q-14 0 -23 14l-147 233q-4 6 -0.5 10.5z" />
    <glyph glyph-name="oacute" unicode="&#xf3;" horiz-adv-x="1171" 
d="M68 518q0 245 134.5 392t372.5 147q236 0 372 -148t136 -391t-136 -390.5t-372 -147.5q-238 0 -372.5 147.5t-134.5 390.5zM211 518q0 -187 98 -301.5t266 -114.5t266.5 114.5t98.5 301.5t-98.5 301.5t-266.5 114.5t-266 -114.5t-98 -301.5zM502 1194l100 233q5 15 21 15
h137q7 0 10.5 -4.5t-0.5 -10.5l-147 -233q-9 -14 -23 -14h-88q-6 0 -9.5 4t-0.5 10z" />
    <glyph glyph-name="ocircumflex" unicode="&#xf4;" horiz-adv-x="1171" 
d="M68 518q0 245 134.5 392t372.5 147q236 0 372 -148t136 -391t-136 -390.5t-372 -147.5q-238 0 -372.5 147.5t-134.5 390.5zM211 518q0 -187 98 -301.5t266 -114.5t266.5 114.5t98.5 301.5t-98.5 301.5t-266.5 114.5t-266 -114.5t-98 -301.5zM379 1194l104 240q3 8 11 8
h163q8 0 11 -8l104 -240q3 -6 -0.5 -10t-9.5 -4h-96q-8 0 -11 6l-69 127q-3 6 -10.5 6t-10.5 -6l-69 -127q-3 -6 -11 -6h-96q-6 0 -9.5 4t-0.5 10z" />
    <glyph glyph-name="otilde" unicode="&#xf5;" horiz-adv-x="1171" 
d="M68 518q0 245 134.5 392t372.5 147q236 0 372 -148t136 -391t-136 -390.5t-372 -147.5q-238 0 -372.5 147.5t-134.5 390.5zM211 518q0 -187 98 -301.5t266 -114.5t266.5 114.5t98.5 301.5t-98.5 301.5t-266.5 114.5t-266 -114.5t-98 -301.5zM266 1239v27q0 29 11 58.5
t32 56.5t58 44t84 17q51 0 95.5 -23.5t82.5 -47t71 -23.5q21 0 43.5 20t22.5 64q0 10 10 10h98q11 0 11 -10v-29q0 -62 -48.5 -118t-136.5 -56q-47 0 -94.5 23.5t-87.5 47t-67 23.5q-21 0 -43.5 -20t-22.5 -64q0 -10 -10 -10h-99q-10 0 -10 10z" />
    <glyph glyph-name="odieresis" unicode="&#xf6;" horiz-adv-x="1171" 
d="M68 518q0 245 134.5 392t372.5 147q236 0 372 -148t136 -391t-136 -390.5t-372 -147.5q-238 0 -372.5 147.5t-134.5 390.5zM211 518q0 -187 98 -301.5t266 -114.5t266.5 114.5t98.5 301.5t-98.5 301.5t-266.5 114.5t-266 -114.5t-98 -301.5zM264 1268v164q0 10 10 10h164
q11 0 11 -10v-164q0 -11 -11 -11h-164q-10 0 -10 11zM713 1268v164q0 10 10 10h164q10 0 10 -10v-164q0 -11 -10 -11h-164q-10 0 -10 11z" />
    <glyph glyph-name="divide" unicode="&#xf7;" horiz-adv-x="440" 
d="M-283 457v123q0 10 11 10h1015q11 0 11 -10v-123q0 -11 -11 -11h-1015q-11 0 -11 11zM96 10v205q0 10 10 10h205q11 0 11 -10v-205q0 -10 -11 -10h-205q-10 0 -10 10zM96 821v205q0 10 10 10h205q11 0 11 -10v-205q0 -10 -11 -10h-205q-10 0 -10 10z" />
    <glyph glyph-name="oslash" unicode="&#xf8;" horiz-adv-x="1171" 
d="M57 78q-7 7 0 14l90 90q7 7 0 17q-79 133 -79 319q0 245 134.5 392t372.5 147q194 0 324 -105q3 -4 10 -4t11 6l77 78q7 8 15 0l71 -74q7 -7 0 -14l-84 -84q-8 -8 -2 -16q86 -133 86 -326q0 -243 -136 -390.5t-372 -147.5q-204 0 -333 108q-8 8 -15 0l-84 -84
q-7 -7 -14 0zM211 518q0 -120 41 -213q6 -12 18 0l535 535q8 8 0 16q-90 78 -230 78q-168 0 -266 -114.5t-98 -301.5zM342 186q97 -84 233 -84q168 0 266.5 114.5t98.5 301.5q0 126 -45 217q-7 13 -16 4l-537 -536q-8 -9 0 -17z" />
    <glyph glyph-name="ugrave" unicode="&#xf9;" horiz-adv-x="1142" 
d="M150 479v547q0 10 10 10h123q10 0 10 -10v-547q0 -79 17 -144t53 -118.5t99.5 -83.5t149.5 -31q168 0 244 94t76 283v547q0 10 10 10h123q10 0 10 -10v-1016q0 -10 -10 -10h-100q-11 0 -13 10l-20 113q-1 9 -9 9.5t-12 -5.5q-14 -19 -38 -40.5t-63.5 -47t-97 -42.5
t-120.5 -17q-115 1 -200.5 36t-138 101t-78 156t-25.5 206zM403 1427q-4 6 0 10.5t11 4.5h137q15 0 20 -15l101 -233q3 -6 -0.5 -10t-9.5 -4h-89q-13 0 -22 14z" />
    <glyph glyph-name="uacute" unicode="&#xfa;" horiz-adv-x="1142" 
d="M150 479v547q0 10 10 10h123q10 0 10 -10v-547q0 -79 17 -144t53 -118.5t99.5 -83.5t149.5 -31q168 0 244 94t76 283v547q0 10 10 10h123q10 0 10 -10v-1016q0 -10 -10 -10h-100q-11 0 -13 10l-20 113q-1 9 -9 9.5t-12 -5.5q-14 -19 -38 -40.5t-63.5 -47t-97 -42.5
t-120.5 -17q-115 1 -200.5 36t-138 101t-78 156t-25.5 206zM504 1194l100 233q5 15 21 15h137q7 0 10.5 -4.5t-0.5 -10.5l-147 -233q-9 -14 -23 -14h-88q-6 0 -9.5 4t-0.5 10z" />
    <glyph glyph-name="ucircumflex" unicode="&#xfb;" horiz-adv-x="1163" 
d="M88 479v547q0 10 10 10h123q10 0 10 -10v-547q0 -79 17 -144t53 -118.5t100 -83.5t150 -31q168 0 243.5 94t75.5 283v547q0 10 11 10h123q10 0 10 -10v-1016q0 -10 -10 -10h-101q-9 0 -12 10l-21 113q-1 9 -8.5 9.5t-11.5 -5.5q-14 -19 -38.5 -40.5t-64 -47t-97 -42.5
t-120.5 -17q-115 1 -200.5 36t-138 101t-78 156t-25.5 206zM354 1194l105 240q3 8 10 8h164q7 0 10 -8l105 -240q3 -6 -1 -10t-10 -4h-96q-7 0 -10 6l-70 127q-3 6 -10 6t-10 -6l-70 -127q-3 -6 -10 -6h-96q-6 0 -10 4t-1 10z" />
    <glyph glyph-name="udieresis" unicode="&#xfc;" horiz-adv-x="1234" 
d="M150 479v547q0 10 10 10h123q10 0 10 -10v-547q0 -79 17 -144t53 -118.5t99.5 -83.5t149.5 -31q168 0 244 94t76 283v547q0 10 10 10h123q10 0 10 -10v-1016q0 -10 -10 -10h-100q-11 0 -13 10l-20 113q-1 9 -9 9.5t-12 -5.5q-14 -19 -38 -40.5t-63.5 -47t-97 -42.5
t-120.5 -17q-115 1 -200.5 36t-138 101t-78 156t-25.5 206zM305 1268v164q0 10 10 10h164q10 0 10 -10v-164q0 -11 -10 -11h-164q-10 0 -10 11zM754 1268v164q0 10 10 10h164q10 0 10 -10v-164q0 -11 -10 -11h-164q-10 0 -10 11z" />
    <glyph glyph-name="yacute" unicode="&#xfd;" horiz-adv-x="1089" 
d="M106 1026q-3 10 9 10h129q11 0 14 -10l287 -895q3 -7 10 -7t10 7l287 895q3 10 14 10h129q12 0 9 -10l-345 -1018l-51 -153q-19 -60 -32.5 -93.5t-35.5 -70.5t-48.5 -55t-66 -30t-93.5 -12h-211q-10 0 -10 11v102q0 10 10 10h209q32 0 53.5 8t37 30t23 40.5t21.5 59.5
q9 19 8.5 55t-18.5 90zM436 1194l101 233q5 15 20 15h137q7 0 11 -4.5t0 -10.5l-148 -233q-9 -14 -22 -14h-89q-6 0 -9.5 4t-0.5 10z" />
    <glyph glyph-name="thorn" unicode="&#xfe;" horiz-adv-x="1232" 
d="M150 -395v1827q0 10 10 10h123q10 0 10 -10v-498q0 -4 5.5 -5.5t8.5 1.5q142 127 330 127q230 0 369 -149t139 -390q0 -243 -136 -390.5t-372 -147.5q-193 0 -330 122q-11 10 -14 0v-497q-4 -11 -10 -11h-123q-10 0 -10 11zM293 518q0 -190 88.5 -303t255.5 -113
q169 0 266.5 114.5t97.5 301.5t-97.5 301.5t-266.5 114.5q-167 0 -255.5 -113t-88.5 -303z" />
    <glyph glyph-name="ydieresis" unicode="&#xff;" horiz-adv-x="1089" 
d="M106 1026q-3 10 9 10h129q11 0 14 -10l287 -895q3 -7 10 -7t10 7l287 895q3 10 14 10h129q12 0 9 -10l-345 -1018l-51 -153q-19 -60 -32.5 -93.5t-35.5 -70.5t-48.5 -55t-66 -30t-93.5 -12h-211q-10 0 -10 11v102q0 10 10 10h209q32 0 53.5 8t37 30t23 40.5t21.5 59.5
q9 19 8.5 55t-18.5 90zM242 1268v164q0 10 10 10h164q10 0 10 -10v-164q0 -11 -10 -11h-164q-10 0 -10 11zM690 1268v164q0 10 10 10h164q10 0 10 -10v-164q0 -11 -10 -11h-164q-10 0 -10 11z" />
    <glyph glyph-name="OE" unicode="&#x152;" horiz-adv-x="2195" 
d="M88 721q0 165 37.5 299.5t111 233.5t189.5 153.5t266 54.5q294 0 453 -215v185q0 10 10 10h922q10 0 10 -10v-103q0 -10 -10 -10h-779q-10 0 -10 -10v-504q0 -10 10 -10h691q10 0 10 -11v-102q0 -10 -10 -10h-691q-10 0 -10 -10v-529q0 -10 10 -10h779q10 0 10 -10v-103
q0 -10 -10 -10h-922q-10 0 -10 10v183q-158 -213 -453 -213q-150 0 -266 54.5t-189.5 153.5t-111 233.5t-37.5 299.5zM242 721q0 -291 119.5 -455t330.5 -164t331 164t120 455t-120 454.5t-331 163.5t-330.5 -163.5t-119.5 -454.5z" />
    <glyph glyph-name="oe" unicode="&#x153;" horiz-adv-x="2043" 
d="M88 518q0 245 135 392t373 147q145 0 254.5 -58.5t173.5 -164.5q64 106 172 165.5t248 59.5q227 0 359 -149t132 -392q0 -31 -4 -43q-3 -10 -12 -10h-807q-10 0 -10 -10q0 -67 23.5 -130t66.5 -113t108.5 -80t143.5 -30q114 0 188.5 46.5t108.5 113.5q5 10 16 10h131
q4 0 7 -1t5 -3t1 -6q-45 -137 -166.5 -209.5t-290.5 -72.5q-138 0 -246 59t-172 166q-64 -108 -173.5 -166.5t-256.5 -58.5q-238 0 -373 147.5t-135 390.5zM231 518q0 -187 98.5 -301.5t266.5 -114.5t266.5 114.5t98.5 301.5t-98.5 301.5t-266.5 114.5t-266.5 -114.5
t-98.5 -301.5zM1102 598q0 -10 10 -10h657q11 0 11 10q0 58 -19.5 115.5t-58 108.5t-105.5 82.5t-153 31.5q-83 0 -151 -35t-108 -88.5t-61.5 -109.5t-21.5 -105z" />
    <glyph glyph-name="Ydieresis" unicode="&#x178;" horiz-adv-x="1339" 
d="M131.5 1438.5q1.5 3.5 5.5 3.5h139q12 0 19 -10l387 -633q3 -5 8 -5t8 5l392 633q7 10 16 10h141q9 0 4 -10l-479 -773q-8 -14 -8 -32v-617q0 -10 -10 -10h-123q-10 0 -10 10v617q0 19 -9 32l-479 773q-3 3 -1.5 6.5zM342 1595v164q0 10 10 10h164q10 0 10 -10v-164
q0 -10 -10 -10h-164q-10 0 -10 10zM791 1595v164q0 10 10 10h164q10 0 10 -10v-164q0 -10 -10 -10h-164q-10 0 -10 10z" />
    <glyph glyph-name="circumflex" unicode="&#x2c6;" horiz-adv-x="612" 
d="M98 1194l105 240q3 8 10 8h164q7 0 10 -8l105 -240q3 -6 -1 -10t-10 -4h-96q-7 0 -10 6l-70 127q-3 6 -10 6t-10 -6l-70 -127q-3 -6 -10 -6h-96q-6 0 -10 4t-1 10z" />
    <glyph glyph-name="tilde" unicode="&#x2dc;" horiz-adv-x="856" 
d="M109 1239v27q0 64 47.5 120t136.5 56q40 0 77.5 -14.5t61.5 -32.5t54 -32.5t57 -14.5q21 0 43 19.5t22 64.5q0 10 10 10h99q10 0 10 -10v-29q0 -63 -48 -118.5t-136 -55.5q-47 0 -95 23.5t-88 47t-67 23.5q-21 0 -43.5 -20t-22.5 -64q0 -10 -10 -10h-98q-10 0 -10 10z
" />
    <glyph glyph-name="uni2000" unicode="&#x2000;" horiz-adv-x="933" 
 />
    <glyph glyph-name="uni2001" unicode="&#x2001;" horiz-adv-x="1866" 
 />
    <glyph glyph-name="uni2002" unicode="&#x2002;" horiz-adv-x="933" 
 />
    <glyph glyph-name="uni2003" unicode="&#x2003;" horiz-adv-x="1866" 
 />
    <glyph glyph-name="uni2004" unicode="&#x2004;" horiz-adv-x="622" 
 />
    <glyph glyph-name="uni2005" unicode="&#x2005;" horiz-adv-x="466" 
 />
    <glyph glyph-name="uni2006" unicode="&#x2006;" horiz-adv-x="311" 
 />
    <glyph glyph-name="uni2007" unicode="&#x2007;" horiz-adv-x="311" 
 />
    <glyph glyph-name="uni2008" unicode="&#x2008;" horiz-adv-x="233" 
 />
    <glyph glyph-name="uni2009" unicode="&#x2009;" horiz-adv-x="373" 
 />
    <glyph glyph-name="uni200A" unicode="&#x200a;" horiz-adv-x="103" 
 />
    <glyph glyph-name="uni2010" unicode="&#x2010;" horiz-adv-x="778" 
d="M88 457v123q0 10 10 10h561q11 0 11 -10v-123q0 -11 -11 -11h-561q-10 0 -10 11z" />
    <glyph glyph-name="uni2011" unicode="&#x2011;" horiz-adv-x="778" 
d="M88 457v123q0 10 10 10h561q11 0 11 -10v-123q0 -11 -11 -11h-561q-10 0 -10 11z" />
    <glyph glyph-name="figuredash" unicode="&#x2012;" horiz-adv-x="778" 
d="M88 457v123q0 10 10 10h561q11 0 11 -10v-123q0 -11 -11 -11h-561q-10 0 -10 11z" />
    <glyph glyph-name="endash" unicode="&#x2013;" horiz-adv-x="1210" 
d="M150 457v123q0 10 10 10h903q10 0 10 -10v-123q0 -11 -10 -11h-903q-10 0 -10 11z" />
    <glyph glyph-name="emdash" unicode="&#x2014;" horiz-adv-x="1726" 
d="M88 457v123q0 10 10 10h1510q10 0 10 -10v-123q0 -11 -10 -11h-1510q-10 0 -10 11z" />
    <glyph glyph-name="quoteleft" unicode="&#x2018;" 
d="M109 924v297q0 55 21 103.5t71.5 83t122.5 34.5q10 0 10 -10v-103q0 -10 -10 -10q-42 0 -67.5 -27.5t-25.5 -70.5v-31q0 -10 11 -10h82q10 0 10 -11v-245q0 -11 -10 -11h-205q-10 0 -10 11z" />
    <glyph glyph-name="quoteright" unicode="&#x2019;" 
d="M109 924v102q0 10 10 10q42 0 67 27.5t25 71.5v30q0 11 -10 11h-82q-10 0 -10 10v246q0 10 10 10h205q10 0 10 -10v-297q0 -56 -21 -104.5t-71.5 -83t-122.5 -34.5q-10 0 -10 11z" />
    <glyph glyph-name="quotesinglbase" unicode="&#x201a;" 
d="M109 10v246q0 10 10 10h205q10 0 10 -10v-297q0 -55 -21 -103.5t-71.5 -83t-122.5 -34.5q-10 0 -10 10v102q0 11 10 11q42 0 67 27.5t25 70.5v31q0 10 -10 10h-82q-10 0 -10 10z" />
    <glyph glyph-name="quotedblleft" unicode="&#x201c;" horiz-adv-x="749" 
d="M88 924v297q0 55 21 103.5t71.5 83t122.5 34.5q10 0 10 -10v-103q0 -10 -10 -10q-42 0 -67 -27.5t-25 -70.5v-31q0 -10 10 -10h82q10 0 10 -11v-245q0 -11 -10 -11h-205q-10 0 -10 11zM416 924v297q0 55 21 103.5t71.5 83t122.5 34.5q10 0 10 -10v-103q0 -10 -10 -10
q-42 0 -67 -27.5t-25 -70.5v-31q0 -10 10 -10h82q10 0 10 -11v-245q0 -11 -10 -11h-205q-10 0 -10 11z" />
    <glyph glyph-name="quotedblright" unicode="&#x201d;" horiz-adv-x="749" 
d="M88 924v102q0 10 10 10q42 0 67 27.5t25 71.5v30q0 11 -10 11h-82q-10 0 -10 10v246q0 10 10 10h205q10 0 10 -10v-297q0 -56 -21 -104.5t-71.5 -83t-122.5 -34.5q-10 0 -10 11zM416 924v102q0 10 10 10q42 0 67 27.5t25 71.5v30q0 11 -10 11h-82q-10 0 -10 10v246
q0 10 10 10h205q10 0 10 -10v-297q0 -56 -21 -104.5t-71.5 -83t-122.5 -34.5q-10 0 -10 11z" />
    <glyph glyph-name="quotedblbase" unicode="&#x201e;" horiz-adv-x="749" 
d="M88 10v246q0 10 10 10h205q10 0 10 -10v-297q0 -55 -21 -103.5t-71.5 -83t-122.5 -34.5q-10 0 -10 10v102q0 11 10 11q42 0 67 27.5t25 70.5v31q0 10 -10 10h-82q-10 0 -10 10zM416 10v246q0 10 10 10h205q10 0 10 -10v-297q0 -55 -21 -103.5t-71.5 -83t-122.5 -34.5
q-10 0 -10 10v102q0 11 10 11q42 0 67 27.5t25 70.5v31q0 10 -10 10h-82q-10 0 -10 10z" />
    <glyph glyph-name="bullet" unicode="&#x2022;" horiz-adv-x="1396" 
d="M150 518q0 147 71.5 271t195.5 196t271 72t271 -72t196 -196t72 -271t-72 -271t-196 -195.5t-271 -71.5q-110 0 -210 42.5t-171.5 114t-114 171.5t-42.5 210z" />
    <glyph glyph-name="ellipsis" unicode="&#x2026;" horiz-adv-x="1128" 
d="M109 10v205q0 10 10 10h205q10 0 10 -10v-205q0 -10 -10 -10h-205q-10 0 -10 10zM442 10v205q0 10 11 10h204q11 0 11 -10v-205q0 -10 -11 -10h-204q-11 0 -11 10zM774 10v205q0 10 10 10h205q10 0 10 -10v-205q0 -10 -10 -10h-205q-10 0 -10 10z" />
    <glyph glyph-name="uni202F" unicode="&#x202f;" horiz-adv-x="373" 
 />
    <glyph glyph-name="guilsinglleft" unicode="&#x2039;" horiz-adv-x="790" 
d="M123 510q-7 9 0 18l434 502q4 6 16 6h152q6 0 6.5 -5.5t-2.5 -8.5l-434 -494q-6 -8 0 -18l434 -496q3 -3 1.5 -8.5t-7.5 -5.5h-150q-10 0 -16 6z" />
    <glyph glyph-name="guilsinglright" unicode="&#x203a;" horiz-adv-x="790" 
d="M118.5 1030.5q0.5 5.5 6.5 5.5h151q13 0 17 -6l434 -502q7 -9 0 -18l-434 -504q-6 -6 -17 -6h-149q-6 0 -7.5 5.5t1.5 8.5l434 496q6 10 0 18l-434 494q-3 3 -2.5 8.5z" />
    <glyph glyph-name="uni205F" unicode="&#x205f;" horiz-adv-x="466" 
 />
    <glyph glyph-name="Euro" unicode="&#x20ac;" horiz-adv-x="1363" 
d="M59 516l31 123q0 10 12 10h123q11 0 11 13q-2 66 2 141q0 12 -13 12h-155q-9 0 -9 10l31 123q3 10 12 10h140q9 0 12 11q42 231 168 362t342 131q73 0 132 -12.5t104.5 -39t66 -42.5t53.5 -47q7 -7 11 -10q9 -9 6 -19l-33 -121q-1 -8 -9.5 -9.5t-11.5 3.5
q-51 71 -133 122.5t-186 51.5q-287 0 -356 -366q-3 -15 12 -15h620q12 0 9 -10l-31 -123q0 -10 -12 -10h-607q-10 0 -10 -12q-4 -55 -2 -144q0 -10 10 -10h566q8 0 8 -10l-31 -123q-3 -10 -12 -10h-514q-5 0 -8 -4t-2 -10q62 -390 360 -390q113 0 213.5 77.5t150.5 201.5
q2 4 6 5.5t7.5 -0.5t3.5 -7v-195q0 -14 -6 -22q-53 -74 -147.5 -128t-227.5 -54q-222 0 -348.5 135.5t-165.5 376.5q-3 14 -14 14h-170q-12 0 -9 10z" />
    <glyph glyph-name="trademark" unicode="&#x2122;" horiz-adv-x="923" 
d="M51 1386v46q0 10 8 10h291q10 0 10 -10v-46q0 -10 -10 -10h-102q-10 0 -10 -10v-319q0 -11 -11 -11h-45q-10 0 -10 11v319q0 10 -10 10h-101q-10 0 -10 10zM389 1047v385q0 10 10 10h99q9 0 12 -10l80 -328q2 -4 5 -4t5 4l80 328q3 10 12 10h99q10 0 10 -10v-385
q0 -11 -10 -11h-46q-10 0 -10 11v321q0 3 -2 4.5t-4.5 0.5t-3.5 -5l-76 -321q-4 -11 -12 -11h-84q-8 0 -12 11l-76 321q-1 4 -3.5 5t-4.5 -0.5t-2 -4.5v-321q0 -11 -11 -11h-45q-10 0 -10 11z" />
    <glyph glyph-name="uni25FC" unicode="&#x25fc;" horiz-adv-x="1034" 
d="M0 0v1034h1034v-1034h-1034z" />
    <glyph glyph-name="uniFB03" unicode="&#xfb03;" horiz-adv-x="1839" 
d="M47 924v102q0 10 10 10h195q10 0 10 11v135q0 260 277 260h112q11 0 11 -10v-103q0 -10 -11 -10h-110q-65 0 -100 -36t-35 -101v-135q0 -11 10 -11h235q11 0 11 -10v-102q0 -11 -11 -11h-235q-10 0 -10 -10v-893q0 -10 -11 -10h-123q-10 0 -10 10v893q0 10 -10 10h-195
q-10 0 -10 11zM715 924v102q0 10 10 10h195q10 0 10 11v135q0 125 65 192.5t211 67.5h113q10 0 10 -10v-103q0 -10 -10 -10h-111q-65 0 -100 -36t-35 -101v-135q0 -11 10 -11h236q10 0 10 -10v-102q0 -11 -10 -11h-236q-10 0 -10 -10v-893q0 -10 -10 -10h-123q-10 0 -10 10
v893q0 10 -10 10h-195q-10 0 -10 11zM1485 1268v164q0 10 10 10h164q10 0 10 -10v-164q0 -11 -10 -11h-164q-10 0 -10 11zM1505 10v1016q0 10 11 10h122q11 0 11 -10v-1016q0 -10 -11 -10h-122q-11 0 -11 10z" />
    <glyph glyph-name="uniFB04" unicode="&#xfb04;" horiz-adv-x="1798" 
d="M47 924v102q0 10 10 10h195q10 0 10 11v135q0 260 277 260h112q11 0 11 -10v-103q0 -10 -11 -10h-110q-65 0 -100 -36t-35 -101v-135q0 -11 10 -11h235q11 0 11 -10v-102q0 -11 -11 -11h-235q-10 0 -10 -10v-893q0 -10 -11 -10h-123q-10 0 -10 10v893q0 10 -10 10h-195
q-10 0 -10 11zM715 924v102q0 10 10 10h195q10 0 10 11v135q0 125 65 192.5t211 67.5h113q10 0 10 -10v-103q0 -10 -10 -10h-111q-65 0 -100 -36t-35 -101v-135q0 -11 10 -11h236q10 0 10 -10v-102q0 -11 -10 -11h-236q-10 0 -10 -10v-893q0 -10 -10 -10h-123q-10 0 -10 10
v893q0 10 -10 10h-195q-10 0 -10 11zM1485 10v1422q0 10 10 10h123q10 0 10 -10v-1422q0 -10 -10 -10h-123q-10 0 -10 10z" />
    </font>
</defs>
</svg>
